<svg xmlns="http://www.w3.org/2000/svg" xmlns:xlink="http://www.w3.org/1999/xlink" width="600" zoomAndPan="magnify" viewBox="0 0 450 299.999988" height="400" preserveAspectRatio="xMidYMid meet" version="1.0"><defs><clipPath id="31dde9fa9c"><path d="M 5 0 L 445.25 0 L 445.25 300 L 5 300 Z M 5 0 " clip-rule="nonzero"/></clipPath></defs><g clip-path="url(#31dde9fa9c)"><path fill="#000000" d="M 121.507812 0.789062 L 141.414062 0.789062 C 142.460938 0.789062 143.296875 1.625 143.296875 2.671875 L 143.296875 202.25 C 143.296875 203.296875 142.460938 204.136719 141.414062 204.136719 L 121.507812 204.136719 C 120.457031 204.136719 119.621094 203.296875 119.621094 202.25 L 119.621094 2.671875 C 119.621094 1.625 120.457031 0.789062 121.507812 0.789062 Z M 258.546875 164.972656 L 258.546875 170 C 258.546875 172.304688 258.128906 175.234375 257.289062 179.003906 C 256.660156 182.566406 254.773438 186.542969 251.421875 190.105469 C 248.28125 193.664062 243.667969 197.015625 237.171875 199.945312 C 230.679688 202.460938 222.085938 203.925781 210.769531 203.925781 C 199.457031 203.925781 190.863281 202.460938 184.367188 199.945312 C 177.871094 197.433594 173.472656 194.082031 170.121094 190.105469 C 166.976562 186.542969 164.882812 182.566406 164.253906 178.796875 C 163.625 175.027344 162.996094 172.09375 162.996094 170 L 162.996094 56.285156 C 162.996094 55.238281 163.832031 54.398438 164.882812 54.398438 L 184.789062 54.398438 C 185.835938 54.398438 186.671875 55.238281 186.671875 56.285156 L 186.671875 162.667969 C 186.671875 166.230469 187.09375 168.742188 187.722656 170.628906 C 188.140625 172.722656 189.1875 174.605469 190.65625 176.28125 C 192.121094 178.167969 194.425781 179.632812 197.570312 180.890625 C 200.503906 182.144531 204.695312 182.773438 209.933594 182.773438 C 215.382812 182.773438 219.78125 182.144531 222.925781 180.890625 C 226.066406 179.632812 228.582031 178.375 230.050781 176.492188 C 231.726562 174.816406 232.773438 172.929688 233.402344 170.835938 C 233.820312 168.742188 234.660156 167.277344 234.660156 162.25 L 234.660156 56.285156 C 234.660156 55.238281 235.496094 54.398438 236.546875 54.398438 L 256.453125 54.398438 C 257.5 54.398438 258.335938 55.238281 258.335938 56.285156 Z M 326.4375 54.609375 L 339.851562 54.609375 C 341.105469 54.609375 341.945312 55.867188 341.527344 56.914062 L 336.917969 74.292969 C 336.707031 75.132812 335.867188 75.761719 335.238281 75.761719 L 325.808594 75.761719 C 320.78125 75.761719 316.800781 76.390625 313.65625 77.855469 C 310.722656 79.320312 308 80.578125 306.53125 82.460938 C 305.066406 84.347656 304.019531 86.023438 303.390625 88.117188 C 302.96875 90.210938 302.761719 91.886719 302.761719 93.769531 L 302.761719 202.460938 C 302.761719 203.507812 301.921875 204.34375 300.875 204.34375 L 280.757812 204.34375 C 279.710938 204.34375 278.871094 203.507812 278.871094 202.460938 L 278.871094 88.746094 C 278.871094 86.648438 279.292969 83.71875 280.128906 79.949219 C 280.757812 76.179688 282.644531 72.410156 285.996094 68.640625 C 289.140625 65.078125 293.75 61.730469 300.246094 58.796875 C 306.53125 55.867188 315.332031 54.609375 326.4375 54.609375 Z M 52.355469 54.609375 C 68.492188 54.609375 80.644531 57.75 88.1875 64.242188 C 95.730469 70.734375 99.503906 78.691406 99.503906 88.324219 L 99.503906 170 C 99.503906 173.351562 98.875 176.910156 97.617188 180.890625 C 96.359375 184.867188 94.054688 188.636719 90.703125 191.78125 C 87.140625 195.128906 82.320312 197.851562 76.246094 200.15625 C 70.167969 202.460938 62.207031 203.507812 52.355469 203.507812 C 42.507812 203.507812 34.546875 202.25 28.46875 200.15625 C 22.390625 198.0625 17.574219 195.128906 14.011719 191.78125 C 10.449219 188.429688 8.144531 184.867188 7.09375 180.890625 C 5.839844 177.121094 5 173.351562 5 170 L 5 157.015625 C 5 150.105469 6.886719 143.613281 10.449219 137.75 C 14.21875 132.09375 19.25 127.90625 25.746094 125.601562 C 29.097656 124.347656 32.660156 123.300781 37.058594 121.832031 C 41.25 120.367188 45.441406 119.109375 49.421875 117.433594 C 53.40625 115.96875 56.757812 114.921875 59.898438 113.875 C 62.832031 112.617188 64.71875 112.199219 65.558594 111.78125 C 66.1875 111.363281 67.234375 110.941406 68.28125 110.316406 C 69.539062 109.6875 70.585938 108.640625 71.84375 107.59375 C 73.101562 106.125 73.941406 104.871094 74.566406 103.195312 C 75.40625 101.519531 75.824219 99.632812 75.824219 97.332031 L 75.824219 92.09375 C 75.824219 90.210938 75.40625 88.535156 74.566406 86.441406 C 73.941406 84.347656 72.472656 82.878906 70.796875 80.996094 C 69.121094 79.320312 66.394531 78.0625 63.460938 77.015625 C 60.527344 75.96875 56.757812 75.550781 51.9375 75.550781 C 42.71875 75.550781 36.640625 77.4375 33.078125 81.207031 C 30.355469 84.554688 28.46875 88.535156 28.257812 93.140625 C 28.257812 94.191406 27.421875 94.816406 26.375 94.816406 L 6.886719 94.816406 C 5.839844 94.816406 5 93.980469 5 92.933594 L 5 88.117188 C 5 83.507812 5.839844 79.109375 7.515625 75.132812 C 9.191406 70.734375 12.125 67.175781 16.105469 64.03125 C 19.878906 61.101562 24.90625 58.378906 30.984375 56.914062 C 36.851562 55.65625 43.976562 54.609375 52.355469 54.609375 Z M 76.246094 128.117188 C 75.824219 130 74.777344 131.257812 73.519531 132.304688 C 72.054688 133.351562 70.796875 133.769531 69.328125 134.398438 C 66.605469 135.445312 63.460938 136.492188 60.320312 137.539062 C 57.175781 138.796875 54.03125 139.84375 51.308594 140.679688 C 47.957031 141.9375 44.605469 142.984375 41.878906 144.03125 C 39.574219 145.078125 37.480469 146.335938 35.382812 147.800781 C 33.707031 149.265625 32.242188 151.152344 30.773438 153.457031 C 29.308594 155.96875 28.679688 158.691406 28.679688 162.25 C 28.679688 169.160156 30.355469 174.398438 33.707031 177.957031 C 37.058594 181.308594 43.347656 183.191406 52.355469 183.191406 C 61.578125 183.191406 67.863281 181.308594 71.425781 177.75 C 74.777344 174.1875 76.453125 168.953125 76.453125 162.460938 Z M 398.101562 54.609375 C 414.238281 54.609375 426.390625 57.75 433.933594 64.242188 C 441.476562 70.734375 445.25 78.691406 445.25 88.324219 L 445.25 170 C 445.25 173.351562 444.621094 176.910156 443.363281 180.890625 C 442.105469 184.867188 439.800781 188.636719 436.449219 191.78125 C 433.097656 194.921875 428.066406 197.851562 421.992188 200.15625 C 415.914062 202.460938 407.953125 203.507812 398.101562 203.507812 C 388.253906 203.507812 380.292969 202.25 374.214844 200.15625 C 368.136719 198.0625 363.320312 195.128906 359.757812 191.78125 C 356.195312 188.429688 353.890625 184.867188 352.839844 180.890625 C 351.585938 176.910156 350.957031 173.140625 350.957031 170 L 350.957031 157.015625 C 350.957031 150.105469 352.839844 143.613281 356.402344 137.75 C 359.964844 132.09375 365.203125 127.90625 371.699219 125.601562 C 375.054688 124.347656 378.617188 123.300781 383.015625 121.832031 C 387.207031 120.367188 391.398438 119.109375 395.378906 117.433594 C 399.359375 115.96875 402.710938 114.921875 405.855469 113.875 C 408.789062 112.617188 410.675781 112.199219 411.511719 111.78125 C 412.140625 111.363281 413.191406 110.941406 414.238281 110.316406 C 415.496094 109.6875 416.542969 108.640625 417.800781 107.59375 C 419.058594 106.125 419.894531 104.871094 420.523438 103.195312 C 421.363281 101.519531 421.78125 99.632812 421.78125 97.332031 L 421.78125 92.09375 C 421.78125 90.210938 421.363281 88.535156 420.523438 86.441406 C 419.894531 84.347656 418.429688 82.878906 416.753906 80.996094 C 414.867188 79.320312 412.351562 78.0625 409.417969 77.015625 C 406.484375 75.96875 402.710938 75.550781 397.894531 75.550781 C 388.671875 75.550781 382.597656 77.4375 379.035156 81.207031 C 376.308594 84.554688 374.425781 88.535156 374.214844 93.140625 C 374.214844 94.191406 373.375 94.816406 372.328125 94.816406 L 352.210938 94.816406 C 351.164062 94.816406 350.328125 93.980469 350.328125 92.933594 L 350.328125 88.117188 C 350.328125 83.507812 351.164062 79.109375 352.839844 75.132812 C 354.519531 71.152344 357.453125 67.382812 361.433594 64.242188 C 365.203125 61.308594 370.234375 58.589844 376.308594 57.121094 C 382.597656 55.65625 389.722656 54.609375 398.101562 54.609375 Z M 421.78125 128.117188 C 421.363281 130 420.3125 131.257812 419.058594 132.304688 C 417.589844 133.351562 416.332031 133.769531 414.867188 134.398438 C 412.140625 135.445312 409 136.492188 405.855469 137.539062 C 402.710938 138.796875 399.570312 139.84375 396.84375 140.679688 C 393.492188 141.9375 390.140625 142.984375 387.417969 144.03125 C 385.109375 145.078125 383.015625 146.335938 380.921875 147.800781 C 379.242188 149.265625 377.777344 151.152344 376.308594 153.457031 C 374.84375 155.757812 374.214844 158.691406 374.214844 162.25 C 374.214844 169.160156 375.890625 174.398438 379.242188 177.957031 C 382.597656 181.308594 388.882812 183.191406 397.894531 183.191406 C 407.113281 183.191406 413.398438 181.308594 416.960938 177.75 C 420.3125 174.1875 421.992188 168.953125 421.992188 162.460938 Z M 151.679688 234.292969 C 151.679688 233.246094 152.519531 232.40625 153.566406 232.40625 L 165.089844 232.40625 C 166.136719 232.40625 166.976562 233.246094 166.976562 234.292969 L 166.976562 285.601562 L 189.816406 285.601562 C 190.863281 285.601562 191.703125 286.4375 191.703125 287.484375 L 191.703125 297.957031 C 191.703125 299.003906 190.863281 299.839844 189.816406 299.839844 L 153.566406 299.839844 C 152.519531 299.839844 151.679688 299.003906 151.679688 297.957031 Z M 195.476562 297.328125 L 225.4375 232.824219 C 225.648438 232.199219 226.488281 231.777344 227.117188 231.777344 L 228.164062 231.777344 C 228.792969 231.777344 229.421875 232.199219 229.839844 232.824219 L 259.804688 297.328125 C 260.433594 298.582031 259.59375 299.839844 258.128906 299.839844 L 247.441406 299.839844 C 245.765625 299.839844 244.925781 299.210938 244.089844 297.535156 L 240.734375 289.996094 L 214.542969 289.996094 L 211.191406 297.746094 C 210.769531 298.792969 209.722656 300.050781 207.835938 300.050781 L 197.359375 300.050781 C 195.476562 299.839844 194.847656 298.582031 195.476562 297.328125 Z M 234.867188 276.804688 L 227.535156 260.886719 L 220.410156 276.804688 Z M 272.796875 246.648438 L 258.964844 246.648438 C 257.917969 246.648438 257.082031 245.808594 257.082031 244.761719 L 257.082031 234.292969 C 257.082031 233.246094 257.917969 232.40625 258.964844 232.40625 L 301.503906 232.40625 C 302.550781 232.40625 303.390625 233.246094 303.390625 234.292969 L 303.390625 244.761719 C 303.390625 245.808594 302.550781 246.648438 301.503906 246.648438 L 287.882812 246.648438 L 287.882812 297.957031 C 287.882812 299.003906 287.046875 299.839844 285.996094 299.839844 L 274.472656 299.839844 C 273.425781 299.839844 272.585938 299.003906 272.585938 297.957031 L 272.585938 246.648438 Z M 301.085938 297.328125 L 331.050781 232.824219 C 331.257812 232.199219 332.097656 231.777344 332.726562 231.777344 L 333.773438 231.777344 C 334.402344 231.777344 335.03125 232.199219 335.449219 232.824219 L 365.414062 297.328125 C 366.042969 298.582031 365.203125 299.839844 363.738281 299.839844 L 353.050781 299.839844 C 351.375 299.839844 350.535156 299.210938 349.699219 297.535156 L 346.34375 289.996094 L 320.152344 289.996094 L 316.800781 297.746094 C 316.382812 298.792969 315.332031 300.050781 313.238281 300.050781 L 302.761719 300.050781 C 301.292969 299.839844 300.457031 298.582031 301.085938 297.328125 Z M 340.476562 276.804688 L 333.144531 260.886719 L 326.019531 276.804688 Z M 379.871094 233.035156 C 379.871094 232.199219 380.921875 231.570312 381.550781 231.570312 L 383.015625 231.570312 C 383.433594 231.570312 384.273438 231.988281 384.691406 232.617188 L 406.902344 274.082031 L 407.113281 274.082031 L 429.324219 232.617188 C 429.535156 231.988281 430.582031 231.570312 431 231.570312 L 432.46875 231.570312 C 433.304688 231.570312 434.144531 232.199219 434.144531 233.035156 L 445.039062 297.535156 C 445.25 298.792969 444.410156 299.628906 443.15625 299.628906 L 431.839844 299.628906 C 431 299.628906 430.164062 298.792969 429.953125 298.164062 L 425.554688 268.425781 L 425.34375 268.425781 L 409.207031 299.421875 C 409 300.050781 408.160156 300.46875 407.53125 300.46875 L 405.855469 300.46875 C 405.226562 300.46875 404.597656 300.050781 404.179688 299.421875 L 388.042969 268.425781 L 387.835938 268.425781 L 383.644531 298.164062 C 383.644531 299.003906 382.804688 299.628906 381.757812 299.628906 L 370.441406 299.628906 C 369.1875 299.628906 368.347656 298.792969 368.558594 297.535156 Z M 379.871094 233.035156 " fill-opacity="1" fill-rule="nonzero"/></g></svg>