<svg xmlns="http://www.w3.org/2000/svg" xmlns:xlink="http://www.w3.org/1999/xlink" width="400" zoomAndPan="magnify" viewBox="0 0 300 299.999988" height="400" preserveAspectRatio="xMidYMid meet" version="1.0"><path fill="#000000" d="M 243.75 150 L 56.25 150 C 40.3125 150 28.125 137.8125 28.125 121.875 C 28.125 105.9375 40.3125 93.75 56.25 93.75 L 243.75 93.75 C 259.6875 93.75 271.875 105.9375 271.875 121.875 C 271.875 137.8125 259.6875 150 243.75 150 Z M 243.75 150 " fill-opacity="1" fill-rule="nonzero"/><path fill="#000000" d="M 250.3125 134.0625 C 249.375 132.1875 246.5625 131.25 243.75 131.25 L 56.25 131.25 C 53.4375 131.25 50.625 132.1875 49.6875 134.0625 C 47.8125 136.875 46.875 138.75 46.875 141.5625 L 65.625 291.5625 C 66.5625 296.25 70.3125 300 75 300 L 121.875 300 C 117.1875 300 112.5 296.25 112.5 291.5625 L 103.125 160.3125 C 103.125 154.6875 106.875 150.9375 111.5625 150 C 117.1875 150 120.9375 153.75 121.875 158.4375 L 131.25 289.6875 C 131.25 295.3125 127.5 299.0625 122.8125 300 C 122.8125 300 122.8125 300 121.875 300 L 178.125 300 C 178.125 300 178.125 300 177.1875 300 C 171.5625 300 167.8125 295.3125 168.75 289.6875 L 178.125 158.4375 C 178.125 152.8125 182.8125 149.0625 188.4375 150 C 194.0625 150 197.8125 154.6875 196.875 160.3125 L 187.5 291.5625 C 187.5 296.25 182.8125 300 178.125 300 L 225 300 C 229.6875 300 233.4375 296.25 234.375 291.5625 L 253.125 141.5625 C 253.125 138.75 252.1875 136.875 250.3125 134.0625 Z M 250.3125 134.0625 " fill-opacity="1" fill-rule="nonzero"/><path fill="#000000" d="M 241.875 112.5 L 58.125 112.5 C 54.375 112.5 50.625 109.6875 49.6875 105.9375 C 47.8125 102.1875 46.875 98.4375 46.875 93.75 C 46.875 79.6875 54.375 67.5 65.625 60.9375 C 65.625 60 65.625 58.125 65.625 56.25 C 65.625 35.625 82.5 18.75 103.125 18.75 C 107.8125 18.75 112.5 19.6875 116.25 21.5625 C 122.8125 8.4375 135 0 150 0 C 165 0 177.1875 8.4375 183.75 21.5625 C 187.5 19.6875 192.1875 18.75 196.875 18.75 C 217.5 18.75 234.375 35.625 234.375 56.25 C 234.375 58.125 234.375 60 234.375 60.9375 C 245.625 67.5 253.125 79.6875 253.125 93.75 C 253.125 98.4375 252.1875 102.1875 251.25 105.9375 C 249.375 109.6875 246.5625 112.5 241.875 112.5 Z M 65.625 93.75 L 234.375 93.75 C 234.375 85.3125 228.75 77.8125 220.3125 75.9375 C 217.5 75 215.625 73.125 214.6875 71.25 C 213.75 68.4375 213.75 65.625 214.6875 63.75 C 215.625 60.9375 215.625 58.125 215.625 56.25 C 215.625 45.9375 207.1875 37.5 196.875 37.5 C 192.1875 37.5 187.5 39.375 184.6875 42.1875 C 181.875 45 178.125 45 175.3125 44.0625 C 171.5625 43.125 168.75 39.375 168.75 36.5625 C 167.8125 26.25 159.375 18.75 150 18.75 C 140.625 18.75 132.1875 26.25 131.25 36.5625 C 131.25 40.3125 128.4375 43.125 125.625 45 C 121.875 45.9375 118.125 45.9375 116.25 43.125 C 112.5 39.375 107.8125 37.5 103.125 37.5 C 92.8125 37.5 84.375 45.9375 84.375 56.25 C 84.375 58.125 84.375 60.9375 85.3125 62.8125 C 86.25 65.625 86.25 68.4375 85.3125 70.3125 C 84.375 73.125 82.5 75 79.6875 75.9375 C 71.25 77.8125 65.625 85.3125 65.625 93.75 Z M 65.625 93.75 " fill-opacity="1" fill-rule="nonzero"/></svg>