<svg version="1.1" id="Layer_1" xmlns="http://www.w3.org/2000/svg" xmlns:xlink="http://www.w3.org/1999/xlink" x="0px" y="0px"
	 width="100%" viewBox="0 0 1333 2000" enable-background="new 0 0 1333 2000" xml:space="preserve">
<path fill="#000000" opacity="1.000000" stroke="none" 
	d="
M713.000000,2001.000000 
	C475.333374,2001.000000 238.166718,2001.000000 1.000064,2001.000000 
	C1.000042,1334.333496 1.000042,667.666870 1.000021,1.000243 
	C445.333160,1.000162 889.666321,1.000162 1333.999634,1.000081 
	C1333.999756,667.666443 1333.999756,1334.332886 1333.999878,2000.999634 
	C1127.166626,2001.000000 920.333313,2001.000000 713.000000,2001.000000 
M339.002319,1525.504150 
	C341.817169,1530.307983 345.112915,1534.904541 347.299713,1539.979004 
	C349.160309,1544.296509 351.793945,1545.087891 356.072357,1545.085815 
	C563.551147,1544.987793 771.029968,1545.000122 978.508789,1545.000122 
	C979.508667,1545.000122 980.609436,1545.267822 981.486023,1544.938843 
	C982.989868,1544.374512 984.962524,1543.801392 985.681580,1542.599609 
	C992.658020,1530.939087 999.435669,1519.159180 1006.229187,1507.389648 
	C1018.920654,1485.401855 1031.523926,1463.362915 1044.277100,1441.411011 
	C1057.849731,1418.048462 1071.600098,1394.789185 1085.186279,1371.434448 
	C1096.634644,1351.754395 1107.910767,1331.973999 1119.350830,1312.289185 
	C1132.023315,1290.483643 1144.834717,1268.758911 1157.512085,1246.956299 
	C1167.472412,1229.826416 1177.269531,1212.601318 1187.232544,1195.472900 
	C1198.512451,1176.080566 1209.949585,1156.779663 1221.222168,1137.383179 
	C1234.966187,1113.734375 1248.575684,1090.007690 1262.307007,1066.351562 
	C1274.065186,1046.094727 1285.770020,1025.804077 1297.847290,1005.738403 
	C1300.148071,1001.915649 1299.464844,999.259583 1297.508057,996.004578 
	C1292.194580,987.166077 1286.933350,978.294678 1281.768555,969.368774 
	C1269.053833,947.394348 1256.465942,925.346497 1243.712891,903.394470 
	C1230.140381,880.031982 1216.390259,856.772644 1202.804199,833.417969 
	C1191.355957,813.737976 1180.079590,793.957825 1168.639404,774.273071 
	C1155.966797,752.467834 1143.155396,730.743164 1130.478027,708.940613 
	C1120.517700,691.810608 1110.725708,674.582764 1100.756592,657.458008 
	C1089.551880,638.210815 1078.160767,619.071960 1066.981445,599.810120 
	C1054.155640,577.711548 1041.546753,555.487061 1028.709106,533.395508 
	C1014.966553,509.747040 1000.978516,486.240875 987.322937,462.542755 
	C985.015076,458.537750 982.573059,456.875793 977.742188,456.879059 
	C770.596680,457.019379 563.451172,456.999756 356.305634,456.999817 
	C355.305725,456.999817 354.188965,456.714935 353.331879,457.065155 
	C351.850006,457.670624 349.977234,458.333466 349.229126,459.558746 
	C343.683929,468.640961 338.328644,477.840637 333.001892,487.054443 
	C315.624695,517.112061 298.356049,547.232666 280.910187,577.250366 
	C265.027985,604.577515 248.891144,631.756653 233.008942,659.083740 
	C215.563049,689.101257 198.350800,719.254639 180.904938,749.272217 
	C165.022720,776.599304 148.885834,803.778381 133.003632,831.105469 
	C115.557724,861.123169 98.321465,891.262634 80.906021,921.298096 
	C66.691620,945.812988 52.622219,970.420227 37.865040,994.606079 
	C34.256523,1000.520264 35.946926,1004.490112 38.769569,1009.289001 
	C46.656052,1022.697021 54.412716,1036.181274 62.254631,1049.615601 
	C71.254105,1065.032837 80.326263,1080.407715 89.300781,1095.839478 
	C99.261894,1112.967529 109.138206,1130.145142 119.070717,1147.289795 
	C127.035698,1161.038452 135.017258,1174.777588 143.013504,1188.508057 
	C152.986404,1205.632812 162.995377,1222.736572 172.963593,1239.863892 
	C182.024475,1255.432251 191.032928,1271.031128 200.098450,1286.596680 
	C209.990204,1303.580933 219.941849,1320.530273 229.828583,1337.517456 
	C238.971146,1353.226074 248.075302,1368.957153 257.172638,1384.692017 
	C266.188751,1400.286499 275.151062,1415.911865 284.181763,1431.497803 
	C293.050476,1446.804321 301.984070,1462.072998 310.873810,1477.367310 
	C320.091431,1493.225952 329.290588,1509.095215 339.002319,1525.504150 
z"/>
<path fill="#808080" opacity="1.000000" stroke="none" 
	d="
M338.750061,1525.231934 
	C329.290588,1509.095215 320.091431,1493.225952 310.873810,1477.367310 
	C301.984070,1462.072998 293.050476,1446.804321 284.181763,1431.497803 
	C275.151062,1415.911865 266.188751,1400.286499 257.172638,1384.692017 
	C248.075302,1368.957153 238.971146,1353.226074 229.828583,1337.517456 
	C219.941849,1320.530273 209.990204,1303.580933 200.098450,1286.596680 
	C191.032928,1271.031128 182.024475,1255.432251 172.963593,1239.863892 
	C162.995377,1222.736572 152.986404,1205.632812 143.013504,1188.508057 
	C135.017258,1174.777588 127.035698,1161.038452 119.070717,1147.289795 
	C109.138206,1130.145142 99.261894,1112.967529 89.300781,1095.839478 
	C80.326263,1080.407715 71.254105,1065.032837 62.254631,1049.615601 
	C54.412716,1036.181274 46.656052,1022.697021 38.769569,1009.289001 
	C35.946926,1004.490112 34.256523,1000.520264 37.865040,994.606079 
	C52.622219,970.420227 66.691620,945.812988 80.906021,921.298096 
	C98.321465,891.262634 115.557724,861.123169 133.003632,831.105469 
	C148.885834,803.778381 165.022720,776.599304 180.904938,749.272217 
	C198.350800,719.254639 215.563049,689.101257 233.008942,659.083740 
	C248.891144,631.756653 265.027985,604.577515 280.910187,577.250366 
	C298.356049,547.232666 315.624695,517.112061 333.001892,487.054443 
	C338.328644,477.840637 343.683929,468.640961 349.229126,459.558746 
	C349.977234,458.333466 351.850006,457.670624 353.331879,457.065155 
	C354.188965,456.714935 355.305725,456.999817 356.305634,456.999817 
	C563.451172,456.999756 770.596680,457.019379 977.742188,456.879059 
	C982.573059,456.875793 985.015076,458.537750 987.322937,462.542755 
	C1000.978516,486.240875 1014.966553,509.747040 1028.709106,533.395508 
	C1041.546753,555.487061 1054.155640,577.711548 1066.981445,599.810120 
	C1078.160767,619.071960 1089.551880,638.210815 1100.756592,657.458008 
	C1110.725708,674.582764 1120.517700,691.810608 1130.478027,708.940613 
	C1143.155396,730.743164 1155.966797,752.467834 1168.639404,774.273071 
	C1180.079590,793.957825 1191.355957,813.737976 1202.804199,833.417969 
	C1216.390259,856.772644 1230.140381,880.031982 1243.712891,903.394470 
	C1256.465942,925.346497 1269.053833,947.394348 1281.768555,969.368774 
	C1286.933350,978.294678 1292.194580,987.166077 1297.508057,996.004578 
	C1299.464844,999.259583 1300.148071,1001.915649 1297.847290,1005.738403 
	C1285.770020,1025.804077 1274.065186,1046.094727 1262.307007,1066.351562 
	C1248.575684,1090.007690 1234.966187,1113.734375 1221.222168,1137.383179 
	C1209.949585,1156.779663 1198.512451,1176.080566 1187.232544,1195.472900 
	C1177.269531,1212.601318 1167.472412,1229.826416 1157.512085,1246.956299 
	C1144.834717,1268.758911 1132.023315,1290.483643 1119.350830,1312.289185 
	C1107.910767,1331.973999 1096.634644,1351.754395 1085.186279,1371.434448 
	C1071.600098,1394.789185 1057.849731,1418.048462 1044.277100,1441.411011 
	C1031.523926,1463.362915 1018.920654,1485.401855 1006.229187,1507.389648 
	C999.435669,1519.159180 992.658020,1530.939087 985.681580,1542.599609 
	C984.962524,1543.801392 982.989868,1544.374512 981.486023,1544.938843 
	C980.609436,1545.267822 979.508667,1545.000122 978.508789,1545.000122 
	C771.029968,1545.000122 563.551147,1544.987793 356.072357,1545.085815 
	C351.793945,1545.087891 349.160309,1544.296509 347.299713,1539.979004 
	C345.112915,1534.904541 341.817169,1530.307983 338.750061,1525.231934 
M384.389404,762.160034 
	C389.885834,824.893372 395.401154,887.625122 400.872253,950.360657 
	C404.736877,994.675354 408.550446,1038.994507 412.370850,1083.312988 
	C417.637268,1144.406494 422.973511,1205.494385 428.004303,1266.607422 
	C428.465820,1272.213867 430.424194,1274.454224 435.762390,1275.965088 
	C511.722076,1297.463257 587.607544,1319.223389 663.544617,1340.801758 
	C665.937195,1341.481567 668.859375,1341.487305 671.250977,1340.808350 
	C748.152405,1318.971558 825.011719,1296.986328 901.913574,1275.150879 
	C905.408508,1274.158569 906.648926,1272.523193 906.946533,1269.021851 
	C911.602478,1214.244995 916.367981,1159.477417 921.121643,1104.708984 
	C928.037720,1025.027588 934.955139,945.346375 941.889709,865.666565 
	C947.465027,801.604858 953.070801,737.545776 958.646423,673.484131 
	C959.013855,669.262451 959.239624,665.028381 959.536072,660.730896 
	C764.620056,660.730896 570.429016,660.730896 375.732300,660.730896 
	C378.622681,694.548218 381.472748,727.893616 384.389404,762.160034 
z"/>
<path fill="#010101" opacity="1.000000" stroke="none" 
	d="
M384.356110,761.699524 
	C381.472748,727.893616 378.622681,694.548218 375.732300,660.730896 
	C570.429016,660.730896 764.620056,660.730896 959.536072,660.730896 
	C959.239624,665.028381 959.013855,669.262451 958.646423,673.484131 
	C953.070801,737.545776 947.465027,801.604858 941.889709,865.666565 
	C934.955139,945.346375 928.037720,1025.027588 921.121643,1104.708984 
	C916.367981,1159.477417 911.602478,1214.244995 906.946533,1269.021851 
	C906.648926,1272.523193 905.408508,1274.158569 901.913574,1275.150879 
	C825.011719,1296.986328 748.152405,1318.971558 671.250977,1340.808350 
	C668.859375,1341.487305 665.937195,1341.481567 663.544617,1340.801758 
	C587.607544,1319.223389 511.722076,1297.463257 435.762390,1275.965088 
	C430.424194,1274.454224 428.465820,1272.213867 428.004303,1266.607422 
	C422.973511,1205.494385 417.637268,1144.406494 412.370850,1083.312988 
	C408.550446,1038.994507 404.736877,994.675354 400.872253,950.360657 
	C395.401154,887.625122 389.885834,824.893372 384.356110,761.699524 
M835.963440,960.415588 
	C840.987732,902.741455 846.012085,845.067322 851.056519,787.161987 
	C728.716553,787.161987 607.196533,787.161987 485.633423,787.161987 
	C485.633423,788.910278 485.543152,790.233582 485.646881,791.541565 
	C487.320099,812.638184 489.201599,833.720886 490.580200,854.836487 
	C490.921570,860.065125 492.694244,861.282288 497.722351,861.273621 
	C586.544128,861.120667 675.366211,861.163025 764.188232,861.163086 
	C766.297913,861.163086 768.407654,861.163025 770.974243,861.163025 
	C770.807129,864.003296 770.730896,866.134888 770.549072,868.257324 
	C768.701355,889.833862 766.668457,911.396667 765.106689,932.993652 
	C764.760498,937.781616 763.283447,938.990723 758.598938,938.977478 
	C701.606689,938.816284 644.613770,938.872864 587.621033,938.872925 
	C585.517029,938.872925 583.413025,938.872925 580.951965,938.872925 
	C583.046631,964.592529 585.080872,989.570129 587.158447,1015.079285 
	C644.359192,1015.079285 700.928711,1015.079285 757.347839,1015.079285 
	C757.576294,1015.987549 757.750488,1016.314941 757.723572,1016.624878 
	C755.059570,1047.332397 752.335449,1078.034790 749.769409,1108.750366 
	C749.505249,1111.911987 747.915161,1112.908691 745.251282,1113.642944 
	C720.850769,1120.369629 696.483337,1127.216431 672.070190,1133.896362 
	C670.106079,1134.433838 667.739319,1134.475830 665.786926,1133.932251 
	C640.602173,1126.919678 615.473206,1119.706665 590.286377,1112.701782 
	C587.150085,1111.829590 586.145813,1110.279541 585.923767,1107.154785 
	C585.026428,1094.527466 583.888062,1081.916870 582.772095,1069.305908 
	C582.250916,1063.416260 581.578125,1057.540039 580.974365,1051.661377 
	C556.327759,1051.661377 532.388977,1051.661377 508.145569,1051.661377 
	C508.145569,1053.592041 508.021912,1055.229614 508.163727,1056.843750 
	C511.341980,1093.019531 514.608521,1129.187866 517.657715,1165.374512 
	C517.954285,1168.894409 519.372864,1170.114868 522.525269,1171.012085 
	C569.462463,1184.369873 616.352783,1197.892456 663.305481,1211.195190 
	C666.153931,1212.002197 669.627563,1211.987549 672.481018,1211.184692 
	C719.137085,1198.057373 765.727844,1184.698242 812.377014,1171.546143 
	C816.308289,1170.437866 817.962708,1168.789551 818.325500,1164.511597 
	C824.069397,1096.776733 830.008362,1029.058228 835.963440,960.415588 
z"/>
<path fill="#808080" opacity="1.000000" stroke="none" 
	d="
M835.933044,960.875854 
	C830.008362,1029.058228 824.069397,1096.776733 818.325500,1164.511597 
	C817.962708,1168.789551 816.308289,1170.437866 812.377014,1171.546143 
	C765.727844,1184.698242 719.137085,1198.057373 672.481018,1211.184692 
	C669.627563,1211.987549 666.153931,1212.002197 663.305481,1211.195190 
	C616.352783,1197.892456 569.462463,1184.369873 522.525269,1171.012085 
	C519.372864,1170.114868 517.954285,1168.894409 517.657715,1165.374512 
	C514.608521,1129.187866 511.341980,1093.019531 508.163727,1056.843750 
	C508.021912,1055.229614 508.145569,1053.592041 508.145569,1051.661377 
	C532.388977,1051.661377 556.327759,1051.661377 580.974365,1051.661377 
	C581.578125,1057.540039 582.250916,1063.416260 582.772095,1069.305908 
	C583.888062,1081.916870 585.026428,1094.527466 585.923767,1107.154785 
	C586.145813,1110.279541 587.150085,1111.829590 590.286377,1112.701782 
	C615.473206,1119.706665 640.602173,1126.919678 665.786926,1133.932251 
	C667.739319,1134.475830 670.106079,1134.433838 672.070190,1133.896362 
	C696.483337,1127.216431 720.850769,1120.369629 745.251282,1113.642944 
	C747.915161,1112.908691 749.505249,1111.911987 749.769409,1108.750366 
	C752.335449,1078.034790 755.059570,1047.332397 757.723572,1016.624878 
	C757.750488,1016.314941 757.576294,1015.987549 757.347839,1015.079285 
	C700.928711,1015.079285 644.359192,1015.079285 587.158447,1015.079285 
	C585.080872,989.570129 583.046631,964.592529 580.951965,938.872925 
	C583.413025,938.872925 585.517029,938.872925 587.621033,938.872925 
	C644.613770,938.872864 701.606689,938.816284 758.598938,938.977478 
	C763.283447,938.990723 764.760498,937.781616 765.106689,932.993652 
	C766.668457,911.396667 768.701355,889.833862 770.549072,868.257324 
	C770.730896,866.134888 770.807129,864.003296 770.974243,861.163025 
	C768.407654,861.163025 766.297913,861.163086 764.188232,861.163086 
	C675.366211,861.163025 586.544128,861.120667 497.722351,861.273621 
	C492.694244,861.282288 490.921570,860.065125 490.580200,854.836487 
	C489.201599,833.720886 487.320099,812.638184 485.646881,791.541565 
	C485.543152,790.233582 485.633423,788.910278 485.633423,787.161987 
	C607.196533,787.161987 728.716553,787.161987 851.056519,787.161987 
	C846.012085,845.067322 840.987732,902.741455 835.933044,960.875854 
z"/>
</svg>