<svg xmlns="http://www.w3.org/2000/svg" xmlns:xlink="http://www.w3.org/1999/xlink" width="400" zoomAndPan="magnify" viewBox="0 0 300 299.999988" height="400" preserveAspectRatio="xMidYMid meet" version="1.0"><path fill="#000000" d="M 253.960938 56.152344 C 234.839844 47.519531 214.335938 41.15625 192.898438 37.515625 C 192.507812 37.445312 192.117188 37.621094 191.917969 37.972656 C 189.28125 42.585938 186.359375 48.609375 184.3125 53.339844 C 161.253906 49.941406 138.316406 49.941406 115.730469 53.339844 C 113.683594 48.503906 110.65625 42.585938 108.007812 37.972656 C 107.804688 37.632812 107.414062 37.457031 107.027344 37.515625 C 85.597656 41.148438 65.09375 47.507812 45.960938 56.152344 C 45.796875 56.222656 45.652344 56.339844 45.558594 56.492188 C 6.667969 113.664062 -3.988281 169.429688 1.238281 224.507812 C 1.261719 224.777344 1.417969 225.035156 1.628906 225.199219 C 27.289062 243.742188 52.144531 254.996094 76.539062 262.457031 C 76.929688 262.578125 77.34375 262.4375 77.59375 262.117188 C 83.363281 254.363281 88.507812 246.191406 92.917969 237.589844 C 93.179688 237.085938 92.929688 236.488281 92.398438 236.292969 C 84.238281 233.246094 76.46875 229.53125 68.996094 225.316406 C 68.40625 224.976562 68.359375 224.144531 68.902344 223.746094 C 70.476562 222.585938 72.046875 221.378906 73.550781 220.164062 C 73.820312 219.941406 74.199219 219.890625 74.519531 220.03125 C 123.617188 242.089844 176.769531 242.089844 225.289062 220.03125 C 225.605469 219.882812 225.984375 219.925781 226.269531 220.148438 C 227.769531 221.367188 229.34375 222.585938 230.925781 223.746094 C 231.472656 224.144531 231.4375 224.976562 230.84375 225.316406 C 223.371094 229.613281 215.601562 233.246094 207.429688 236.28125 C 206.898438 236.480469 206.664062 237.085938 206.921875 237.589844 C 211.429688 246.175781 216.574219 254.355469 222.234375 262.109375 C 222.472656 262.4375 222.898438 262.578125 223.289062 262.457031 C 247.800781 254.996094 272.65625 243.742188 298.316406 225.199219 C 298.542969 225.035156 298.683594 224.789062 298.707031 224.519531 C 304.964844 160.84375 288.230469 105.535156 254.351562 56.503906 C 254.269531 56.339844 254.128906 56.222656 253.960938 56.152344 Z M 100.25 190.972656 C 85.46875 190.972656 73.289062 177.617188 73.289062 161.21875 C 73.289062 144.820312 85.234375 131.46875 100.25 131.46875 C 115.386719 131.46875 127.449219 144.9375 127.210938 161.21875 C 127.210938 177.617188 115.269531 190.972656 100.25 190.972656 Z M 199.933594 190.972656 C 185.152344 190.972656 172.972656 177.617188 172.972656 161.21875 C 172.972656 144.820312 184.917969 131.46875 199.933594 131.46875 C 215.070312 131.46875 227.132812 144.9375 226.894531 161.21875 C 226.894531 177.617188 215.070312 190.972656 199.933594 190.972656 Z M 199.933594 190.972656 " fill-opacity="1" fill-rule="nonzero"/></svg>