<svg version="1.1" id="Layer_1" xmlns="http://www.w3.org/2000/svg" xmlns:xlink="http://www.w3.org/1999/xlink" x="0px" y="0px"
	 width="100%" viewBox="0 0 1333 2000" enable-background="new 0 0 1333 2000" xml:space="preserve">
<path fill="#000000" opacity="1.000000" stroke="none" 
	d="
M726.000000,2001.000000 
	C484.000031,2001.000000 242.500061,2001.000000 1.000065,2001.000000 
	C1.000043,1334.333496 1.000043,667.666870 1.000022,1.000244 
	C445.333160,1.000163 889.666321,1.000163 1333.999634,1.000081 
	C1333.999756,667.666443 1333.999756,1334.332886 1333.999878,2000.999634 
	C1131.500000,2001.000000 929.000000,2001.000000 726.000000,2001.000000 
M1168.911011,1227.399292 
	C1182.661011,1203.766235 1196.445190,1180.153198 1210.151611,1156.494995 
	C1225.177002,1130.560669 1240.086304,1104.559204 1255.128052,1078.634399 
	C1269.349243,1054.123901 1283.562622,1029.606934 1298.089355,1005.277832 
	C1300.090576,1001.926270 1299.597900,999.664917 1297.967773,996.854248 
	C1288.272705,980.137573 1278.651611,963.377869 1268.907593,946.689819 
	C1252.969971,919.394409 1236.883423,892.185852 1220.997314,864.860596 
	C1205.851562,838.808472 1190.948486,812.615112 1175.815308,786.555603 
	C1160.680664,760.493408 1145.350586,734.544861 1130.187622,708.499023 
	C1120.301880,691.517944 1110.617432,674.419739 1100.741699,657.432800 
	C1089.466187,638.037842 1078.017334,618.743408 1066.755005,599.340881 
	C1054.009888,577.383911 1041.453857,555.317200 1028.695068,533.368286 
	C1015.032898,509.865387 1001.146667,486.492310 987.568726,462.941162 
	C985.218872,458.865234 982.885193,456.853119 977.711243,456.857269 
	C770.568604,457.023499 563.425903,456.998993 356.283142,456.999054 
	C355.283264,456.999054 354.164185,456.711853 353.309906,457.064850 
	C351.831543,457.675751 349.950470,458.347229 349.220276,459.576538 
	C339.768677,475.488770 330.454987,491.483398 321.178314,507.498932 
	C311.329773,524.501770 301.613647,541.581543 291.737915,558.568481 
	C280.462250,577.963440 269.013550,597.257874 257.751190,616.660522 
	C245.006119,638.617493 232.449783,660.684082 219.691467,682.633240 
	C206.029755,706.136536 192.218216,729.552612 178.491348,753.018066 
	C169.063721,769.134277 159.655182,785.261658 150.263550,801.398926 
	C140.542145,818.102783 130.847397,834.822083 121.148651,851.539124 
	C112.027672,867.260193 102.935501,882.998108 93.796143,898.708435 
	C83.912170,915.698730 73.960335,932.649597 64.089859,949.647644 
	C55.044472,965.224792 46.169132,980.901978 36.974987,996.390320 
	C35.166447,999.437012 34.597122,1001.855042 36.436100,1004.993164 
	C45.709579,1020.817688 54.848106,1036.721191 64.076263,1052.572510 
	C73.965027,1069.558350 83.922981,1086.504028 93.809753,1103.491089 
	C102.952644,1119.199951 112.030006,1134.947144 121.157059,1150.665283 
	C130.040512,1165.963867 138.960861,1181.241089 147.845886,1196.538818 
	C156.974243,1212.255737 166.063049,1227.995361 175.199265,1243.707520 
	C184.996078,1260.556152 194.875137,1277.356812 204.631561,1294.228516 
	C214.962555,1312.093750 225.115799,1330.061768 235.484650,1347.904785 
	C247.660217,1368.856812 260.050018,1389.684082 272.226044,1410.635864 
	C284.982300,1432.586304 297.530182,1454.657837 310.289612,1476.606445 
	C322.469635,1497.558105 335.029053,1518.293823 346.893005,1539.421265 
	C349.443390,1543.963013 352.068207,1545.096313 356.860138,1545.093872 
	C564.002808,1544.985962 771.145569,1545.000977 978.288330,1545.000732 
	C979.621521,1545.000732 981.009216,1545.226318 982.271179,1544.925781 
	C983.360535,1544.666138 984.730652,1544.056763 985.252625,1543.173950 
	C992.587769,1530.770264 999.796570,1518.291748 1007.040222,1505.833862 
	C1016.014099,1490.400146 1025.002563,1474.974976 1033.964722,1459.534302 
	C1043.007080,1443.955566 1052.010376,1428.354004 1061.057129,1412.777954 
	C1070.023926,1397.339844 1079.018677,1381.917969 1088.010254,1366.494263 
	C1097.990845,1349.373901 1107.995728,1332.267456 1117.964111,1315.139893 
	C1127.025024,1299.571411 1136.055298,1283.984985 1145.091553,1268.401978 
	C1152.896606,1254.942383 1160.690918,1241.476318 1168.911011,1227.399292 
z"/>
<path fill="#808080" opacity="1.000000" stroke="none" 
	d="
M1168.700439,1227.706177 
	C1160.690918,1241.476318 1152.896606,1254.942383 1145.091553,1268.401978 
	C1136.055298,1283.984985 1127.025024,1299.571411 1117.964111,1315.139893 
	C1107.995728,1332.267456 1097.990845,1349.373901 1088.010254,1366.494263 
	C1079.018677,1381.917969 1070.023926,1397.339844 1061.057129,1412.777954 
	C1052.010376,1428.354004 1043.007080,1443.955566 1033.964722,1459.534302 
	C1025.002563,1474.974976 1016.014099,1490.400146 1007.040222,1505.833862 
	C999.796570,1518.291748 992.587769,1530.770264 985.252625,1543.173950 
	C984.730652,1544.056763 983.360535,1544.666138 982.271179,1544.925781 
	C981.009216,1545.226318 979.621521,1545.000732 978.288330,1545.000732 
	C771.145569,1545.000977 564.002808,1544.985962 356.860138,1545.093872 
	C352.068207,1545.096313 349.443390,1543.963013 346.893005,1539.421265 
	C335.029053,1518.293823 322.469635,1497.558105 310.289612,1476.606445 
	C297.530182,1454.657837 284.982300,1432.586304 272.226044,1410.635864 
	C260.050018,1389.684082 247.660217,1368.856812 235.484650,1347.904785 
	C225.115799,1330.061768 214.962555,1312.093750 204.631561,1294.228516 
	C194.875137,1277.356812 184.996078,1260.556152 175.199265,1243.707520 
	C166.063049,1227.995361 156.974243,1212.255737 147.845886,1196.538818 
	C138.960861,1181.241089 130.040512,1165.963867 121.157059,1150.665283 
	C112.030006,1134.947144 102.952644,1119.199951 93.809753,1103.491089 
	C83.922981,1086.504028 73.965027,1069.558350 64.076263,1052.572510 
	C54.848106,1036.721191 45.709579,1020.817688 36.436100,1004.993164 
	C34.597122,1001.855042 35.166447,999.437012 36.974987,996.390320 
	C46.169132,980.901978 55.044472,965.224792 64.089859,949.647644 
	C73.960335,932.649597 83.912170,915.698730 93.796143,898.708435 
	C102.935501,882.998108 112.027672,867.260193 121.148651,851.539124 
	C130.847397,834.822083 140.542145,818.102783 150.263550,801.398926 
	C159.655182,785.261658 169.063721,769.134277 178.491348,753.018066 
	C192.218216,729.552612 206.029755,706.136536 219.691467,682.633240 
	C232.449783,660.684082 245.006119,638.617493 257.751190,616.660522 
	C269.013550,597.257874 280.462250,577.963440 291.737915,558.568481 
	C301.613647,541.581543 311.329773,524.501770 321.178314,507.498932 
	C330.454987,491.483398 339.768677,475.488770 349.220276,459.576538 
	C349.950470,458.347229 351.831543,457.675751 353.309906,457.064850 
	C354.164185,456.711853 355.283264,456.999054 356.283142,456.999054 
	C563.425903,456.998993 770.568604,457.023499 977.711243,456.857269 
	C982.885193,456.853119 985.218872,458.865234 987.568726,462.941162 
	C1001.146667,486.492310 1015.032898,509.865387 1028.695068,533.368286 
	C1041.453857,555.317200 1054.009888,577.383911 1066.755005,599.340881 
	C1078.017334,618.743408 1089.466187,638.037842 1100.741699,657.432800 
	C1110.617432,674.419739 1120.301880,691.517944 1130.187622,708.499023 
	C1145.350586,734.544861 1160.680664,760.493408 1175.815308,786.555603 
	C1190.948486,812.615112 1205.851562,838.808472 1220.997314,864.860596 
	C1236.883423,892.185852 1252.969971,919.394409 1268.907593,946.689819 
	C1278.651611,963.377869 1288.272705,980.137573 1297.967773,996.854248 
	C1299.597900,999.664917 1300.090576,1001.926270 1298.089355,1005.277832 
	C1283.562622,1029.606934 1269.349243,1054.123901 1255.128052,1078.634399 
	C1240.086304,1104.559204 1225.177002,1130.560669 1210.151611,1156.494995 
	C1196.445190,1180.153198 1182.661011,1203.766235 1168.700439,1227.706177 
M972.632935,737.454163 
	C973.705200,725.009705 974.731445,712.560974 975.861511,700.121826 
	C977.217651,685.194641 978.449707,670.251404 980.140137,655.361084 
	C981.358826,644.625977 981.653809,644.654114 970.673279,644.653992 
	C816.195862,644.652771 661.718506,644.652588 507.241089,644.653076 
	C458.581543,644.653259 409.921997,644.647278 361.262451,644.667053 
	C354.205933,644.669922 353.875000,645.150208 354.470459,651.537781 
	C358.071991,690.174988 361.728088,728.807495 365.166351,767.459351 
	C367.719360,796.159363 369.945740,824.888184 372.366608,853.600098 
	C373.402069,865.880676 374.534515,878.153381 375.671021,890.425171 
	C378.251160,918.284302 380.966705,946.131470 383.429443,974.000977 
	C385.921722,1002.204468 388.043518,1030.440796 390.566406,1058.641357 
	C394.038910,1097.456299 397.799072,1136.245605 401.317871,1175.056519 
	C404.505981,1210.219727 407.572418,1245.394043 410.572052,1280.573853 
	C410.837891,1283.691650 411.998230,1285.585083 414.937866,1286.406250 
	C418.775940,1287.478394 422.631653,1288.487915 426.464355,1289.578491 
	C438.454071,1292.990234 450.429169,1296.453247 462.423676,1299.847900 
	C475.365417,1303.510498 488.326355,1307.105347 501.271912,1310.754639 
	C513.418945,1314.178589 525.548157,1317.665649 537.700989,1321.068726 
	C550.025085,1324.519409 562.378662,1327.864990 574.700806,1331.322388 
	C587.810364,1335.000488 600.902466,1338.740723 613.994385,1342.481201 
	C626.612305,1346.086060 639.134521,1350.074341 651.868286,1353.204590 
	C658.292969,1354.783936 664.313721,1358.597534 671.681702,1356.265869 
	C684.497681,1352.210205 697.548157,1348.894409 710.503296,1345.279053 
	C722.827026,1341.840088 735.166260,1338.455933 747.477356,1334.972290 
	C759.782715,1331.490356 772.039734,1327.836426 784.357666,1324.400269 
	C800.520264,1319.891724 816.737549,1315.579102 832.902100,1311.077393 
	C849.701660,1306.398926 866.463074,1301.583740 883.247314,1296.850098 
	C894.916504,1293.558960 906.590027,1290.282837 918.274292,1287.045898 
	C922.482483,1285.880127 924.219238,1283.503906 924.503296,1278.857300 
	C925.397217,1264.232422 926.866394,1249.641113 928.208252,1235.045532 
	C930.784851,1207.019653 933.522156,1179.008179 936.015137,1150.974854 
	C938.493652,1123.104736 940.630981,1095.203857 943.139893,1067.336548 
	C946.619324,1028.689575 950.409607,990.070312 953.869385,951.421570 
	C956.408630,923.055176 958.596436,894.657593 961.010193,866.279785 
	C962.111084,853.336304 963.398132,840.408813 964.567749,827.471130 
	C967.251587,797.782349 969.915100,768.091797 972.632935,737.454163 
z"/>
<path fill="#010101" opacity="1.000000" stroke="none" 
	d="
M972.609985,737.928101 
	C969.915100,768.091797 967.251587,797.782349 964.567749,827.471130 
	C963.398132,840.408813 962.111084,853.336304 961.010193,866.279785 
	C958.596436,894.657593 956.408630,923.055176 953.869385,951.421570 
	C950.409607,990.070312 946.619324,1028.689575 943.139893,1067.336548 
	C940.630981,1095.203857 938.493652,1123.104736 936.015137,1150.974854 
	C933.522156,1179.008179 930.784851,1207.019653 928.208252,1235.045532 
	C926.866394,1249.641113 925.397217,1264.232422 924.503296,1278.857300 
	C924.219238,1283.503906 922.482483,1285.880127 918.274292,1287.045898 
	C906.590027,1290.282837 894.916504,1293.558960 883.247314,1296.850098 
	C866.463074,1301.583740 849.701660,1306.398926 832.902100,1311.077393 
	C816.737549,1315.579102 800.520264,1319.891724 784.357666,1324.400269 
	C772.039734,1327.836426 759.782715,1331.490356 747.477356,1334.972290 
	C735.166260,1338.455933 722.827026,1341.840088 710.503296,1345.279053 
	C697.548157,1348.894409 684.497681,1352.210205 671.681702,1356.265869 
	C664.313721,1358.597534 658.292969,1354.783936 651.868286,1353.204590 
	C639.134521,1350.074341 626.612305,1346.086060 613.994385,1342.481201 
	C600.902466,1338.740723 587.810364,1335.000488 574.700806,1331.322388 
	C562.378662,1327.864990 550.025085,1324.519409 537.700989,1321.068726 
	C525.548157,1317.665649 513.418945,1314.178589 501.271912,1310.754639 
	C488.326355,1307.105347 475.365417,1303.510498 462.423676,1299.847900 
	C450.429169,1296.453247 438.454071,1292.990234 426.464355,1289.578491 
	C422.631653,1288.487915 418.775940,1287.478394 414.937866,1286.406250 
	C411.998230,1285.585083 410.837891,1283.691650 410.572052,1280.573853 
	C407.572418,1245.394043 404.505981,1210.219727 401.317871,1175.056519 
	C397.799072,1136.245605 394.038910,1097.456299 390.566406,1058.641357 
	C388.043518,1030.440796 385.921722,1002.204468 383.429443,974.000977 
	C380.966705,946.131470 378.251160,918.284302 375.671021,890.425171 
	C374.534515,878.153381 373.402069,865.880676 372.366608,853.600098 
	C369.945740,824.888184 367.719360,796.159363 365.166351,767.459351 
	C361.728088,728.807495 358.071991,690.174988 354.470459,651.537781 
	C353.875000,645.150208 354.205933,644.669922 361.262451,644.667053 
	C409.921997,644.647278 458.581543,644.653259 507.241089,644.653076 
	C661.718506,644.652588 816.195862,644.652771 970.673279,644.653992 
	C981.653809,644.654114 981.358826,644.625977 980.140137,655.361084 
	C978.449707,670.251404 977.217651,685.194641 975.861511,700.121826 
	C974.731445,712.560974 973.705200,725.009705 972.609985,737.928101 
M477.780548,775.254883 
	C471.447113,775.461243 471.034973,775.839111 471.302979,782.284912 
	C471.482880,786.611694 471.795746,790.937195 472.193787,795.249878 
	C474.734741,822.781677 477.460541,850.297180 479.849548,877.841980 
	C483.375702,918.498169 486.538849,959.185913 490.130096,999.836121 
	C491.587341,1016.331055 490.594757,1013.338562 504.871399,1013.356567 
	C588.530518,1013.461975 672.189819,1013.405823 755.849060,1013.416870 
	C763.390442,1013.417847 763.959595,1013.940308 763.352600,1020.235596 
	C761.418640,1040.294189 759.448425,1060.349243 757.491394,1080.405640 
	C756.553406,1090.018555 755.579041,1099.628174 754.692688,1109.245850 
	C754.374817,1112.695312 753.273438,1115.025269 749.425049,1116.054932 
	C724.706360,1122.667969 700.046814,1129.502197 675.365173,1136.253906 
	C669.122070,1137.961670 662.944702,1137.996216 656.675049,1136.062012 
	C647.787415,1133.320068 638.832214,1130.786011 629.858276,1128.337402 
	C615.274170,1124.357910 600.748901,1120.076782 585.998657,1116.832764 
	C579.827698,1115.475464 578.270264,1112.211426 577.844971,1106.932251 
	C576.534180,1090.661743 575.050659,1074.404907 573.812378,1058.129150 
	C573.548462,1054.660522 572.798584,1052.385620 568.732483,1052.394531 
	C545.568176,1052.445312 522.403687,1052.424561 499.239319,1052.391113 
	C496.462189,1052.387085 495.277069,1053.653564 495.458405,1056.372925 
	C495.569244,1058.035034 495.551147,1059.706665 495.685303,1061.366333 
	C498.664856,1098.225220 501.609894,1135.087036 504.795166,1171.928223 
	C504.946960,1173.683594 506.936707,1176.216797 508.597137,1176.751099 
	C518.231934,1179.851196 528.008118,1182.520752 537.768188,1185.221191 
	C550.261475,1188.677612 562.797119,1191.980957 575.291809,1195.432373 
	C588.421448,1199.059448 601.527100,1202.773560 614.638123,1206.467773 
	C627.748901,1210.161987 640.803894,1214.068481 653.984619,1217.492554 
	C659.315247,1218.877441 665.283569,1220.880249 670.323242,1219.751465 
	C687.168274,1215.978271 703.729614,1210.934082 720.390259,1206.342651 
	C733.525391,1202.722778 746.638733,1199.023682 759.776733,1195.414062 
	C772.432556,1191.937012 785.111145,1188.542725 797.772766,1185.086548 
	C806.109009,1182.811157 814.436523,1180.503662 822.760559,1178.183960 
	C826.324646,1177.190796 828.274963,1175.107910 828.557922,1171.114014 
	C829.299316,1160.650146 830.344421,1150.206787 831.345764,1139.762573 
	C834.969604,1101.963013 838.716736,1064.174927 842.239014,1026.365845 
	C844.896484,997.841125 847.202942,969.283630 849.868286,940.759644 
	C850.293640,936.207275 849.122986,934.057068 844.381958,934.350647 
	C842.390076,934.473938 840.383667,934.357666 838.383850,934.357666 
	C749.391724,934.356628 660.399658,934.358521 571.407532,934.351562 
	C564.434265,934.351013 563.588074,933.768738 562.983459,926.898254 
	C561.523438,910.305054 560.245972,893.695618 558.939270,877.089172 
	C558.481873,871.276001 558.246521,865.444580 557.736084,859.636719 
	C557.371399,855.487488 558.727844,853.198730 563.232910,853.483093 
	C565.058533,853.598328 566.898010,853.489624 568.731140,853.489563 
	C661.222900,853.488892 753.714722,853.489807 846.206482,853.483337 
	C848.705261,853.483154 851.350769,853.888428 853.652222,853.192749 
	C855.235291,852.714050 857.356140,850.761719 857.508118,849.289673 
	C859.747864,827.587341 861.804565,805.864197 863.663635,784.125427 
	C864.412903,775.363037 864.072144,775.253662 855.181763,775.253540 
	C729.692871,775.252197 604.204041,775.253296 477.780548,775.254883 
z"/>
<path fill="#7E7E7E" opacity="1.000000" stroke="none" 
	d="
M478.247864,775.254333 
	C604.204041,775.253296 729.692871,775.252197 855.181763,775.253540 
	C864.072144,775.253662 864.412903,775.363037 863.663635,784.125427 
	C861.804565,805.864197 859.747864,827.587341 857.508118,849.289673 
	C857.356140,850.761719 855.235291,852.714050 853.652222,853.192749 
	C851.350769,853.888428 848.705261,853.483154 846.206482,853.483337 
	C753.714722,853.489807 661.222900,853.488892 568.731140,853.489563 
	C566.898010,853.489624 565.058533,853.598328 563.232910,853.483093 
	C558.727844,853.198730 557.371399,855.487488 557.736084,859.636719 
	C558.246521,865.444580 558.481873,871.276001 558.939270,877.089172 
	C560.245972,893.695618 561.523438,910.305054 562.983459,926.898254 
	C563.588074,933.768738 564.434265,934.351013 571.407532,934.351562 
	C660.399658,934.358521 749.391724,934.356628 838.383850,934.357666 
	C840.383667,934.357666 842.390076,934.473938 844.381958,934.350647 
	C849.122986,934.057068 850.293640,936.207275 849.868286,940.759644 
	C847.202942,969.283630 844.896484,997.841125 842.239014,1026.365845 
	C838.716736,1064.174927 834.969604,1101.963013 831.345764,1139.762573 
	C830.344421,1150.206787 829.299316,1160.650146 828.557922,1171.114014 
	C828.274963,1175.107910 826.324646,1177.190796 822.760559,1178.183960 
	C814.436523,1180.503662 806.109009,1182.811157 797.772766,1185.086548 
	C785.111145,1188.542725 772.432556,1191.937012 759.776733,1195.414062 
	C746.638733,1199.023682 733.525391,1202.722778 720.390259,1206.342651 
	C703.729614,1210.934082 687.168274,1215.978271 670.323242,1219.751465 
	C665.283569,1220.880249 659.315247,1218.877441 653.984619,1217.492554 
	C640.803894,1214.068481 627.748901,1210.161987 614.638123,1206.467773 
	C601.527100,1202.773560 588.421448,1199.059448 575.291809,1195.432373 
	C562.797119,1191.980957 550.261475,1188.677612 537.768188,1185.221191 
	C528.008118,1182.520752 518.231934,1179.851196 508.597137,1176.751099 
	C506.936707,1176.216797 504.946960,1173.683594 504.795166,1171.928223 
	C501.609894,1135.087036 498.664856,1098.225220 495.685303,1061.366333 
	C495.551147,1059.706665 495.569244,1058.035034 495.458405,1056.372925 
	C495.277069,1053.653564 496.462189,1052.387085 499.239319,1052.391113 
	C522.403687,1052.424561 545.568176,1052.445312 568.732483,1052.394531 
	C572.798584,1052.385620 573.548462,1054.660522 573.812378,1058.129150 
	C575.050659,1074.404907 576.534180,1090.661743 577.844971,1106.932251 
	C578.270264,1112.211426 579.827698,1115.475464 585.998657,1116.832764 
	C600.748901,1120.076782 615.274170,1124.357910 629.858276,1128.337402 
	C638.832214,1130.786011 647.787415,1133.320068 656.675049,1136.062012 
	C662.944702,1137.996216 669.122070,1137.961670 675.365173,1136.253906 
	C700.046814,1129.502197 724.706360,1122.667969 749.425049,1116.054932 
	C753.273438,1115.025269 754.374817,1112.695312 754.692688,1109.245850 
	C755.579041,1099.628174 756.553406,1090.018555 757.491394,1080.405640 
	C759.448425,1060.349243 761.418640,1040.294189 763.352600,1020.235596 
	C763.959595,1013.940308 763.390442,1013.417847 755.849060,1013.416870 
	C672.189819,1013.405823 588.530518,1013.461975 504.871399,1013.356567 
	C490.594757,1013.338562 491.587341,1016.331055 490.130096,999.836121 
	C486.538849,959.185913 483.375702,918.498169 479.849548,877.841980 
	C477.460541,850.297180 474.734741,822.781677 472.193787,795.249878 
	C471.795746,790.937195 471.482880,786.611694 471.302979,782.284912 
	C471.034973,775.839111 471.447113,775.461243 478.247864,775.254333 
z"/>
</svg>