<svg version="1.1" id="Layer_1" xmlns="http://www.w3.org/2000/svg" xmlns:xlink="http://www.w3.org/1999/xlink" x="0px" y="0px"
	 width="100%" viewBox="0 0 1333 2000" enable-background="new 0 0 1333 2000" xml:space="preserve">
<path fill="#000000" opacity="1.000000" stroke="none" 
	d="
M770.000000,2001.000000 
	C513.333374,2001.000000 257.166718,2001.000000 1.000069,2001.000000 
	C1.000046,1334.333496 1.000046,667.666870 1.000023,1.000248 
	C445.333160,1.000165 889.666321,1.000165 1333.999634,1.000083 
	C1333.999756,667.666443 1333.999756,1334.332886 1333.999878,2000.999634 
	C1146.166626,2001.000000 958.333313,2001.000000 770.000000,2001.000000 
M170.085648,1235.341309 
	C171.797318,1238.139893 173.558090,1240.909790 175.212524,1243.741821 
	C185.043686,1260.570312 194.896790,1277.386353 204.652405,1294.258545 
	C214.982315,1312.124146 225.135834,1330.091797 235.504776,1347.934570 
	C247.680298,1368.886230 260.070801,1389.713013 272.246582,1410.664429 
	C285.002747,1432.614624 297.551086,1454.685547 310.308624,1476.634888 
	C322.486542,1497.587036 335.040527,1518.324951 346.902832,1539.452637 
	C349.459564,1544.006226 352.124908,1545.092896 356.894104,1545.090454 
	C563.872498,1544.985718 770.850952,1545.000244 977.829346,1545.000122 
	C978.995911,1545.000122 980.279663,1545.311768 981.302063,1544.927612 
	C982.925415,1544.317871 985.015320,1543.624268 985.797607,1542.306763 
	C993.574280,1529.210327 1001.108704,1515.970337 1008.739258,1502.786987 
	C1017.843689,1487.057373 1026.956543,1471.332520 1036.100586,1455.625854 
	C1045.083252,1440.196289 1054.110596,1424.792725 1063.115967,1409.376221 
	C1073.029907,1392.404663 1082.960815,1375.442749 1092.847778,1358.455444 
	C1101.990234,1342.747070 1111.067993,1327.000977 1120.203979,1311.288940 
	C1130.000854,1294.440674 1139.879517,1277.639893 1149.635742,1260.768188 
	C1159.966553,1242.903076 1170.119629,1224.935059 1180.488403,1207.092041 
	C1192.663818,1186.140259 1205.053711,1165.313110 1217.229736,1144.361572 
	C1229.985962,1122.411499 1242.543701,1100.345947 1255.288696,1078.389160 
	C1269.431763,1054.023438 1283.564087,1029.649292 1298.025879,1005.473145 
	C1300.265137,1001.729858 1299.407959,999.228027 1297.601440,996.158264 
	C1288.632812,980.918030 1279.657837,965.681274 1270.780396,950.388000 
	C1257.048584,926.732300 1243.449097,902.999756 1229.691162,879.359375 
	C1216.182983,856.147949 1202.469116,833.056152 1188.986450,809.829956 
	C1170.239624,777.535095 1151.692383,745.124268 1132.931885,712.837463 
	C1117.052246,685.508850 1100.912964,658.331177 1085.030762,631.003967 
	C1067.584839,600.986267 1050.342285,570.850464 1032.935425,540.809937 
	C1017.663208,514.453308 1002.251953,488.177094 986.996277,461.810852 
	C984.996216,458.354065 982.667297,456.889404 978.423340,456.892212 
	C789.609741,457.016510 600.796143,456.999664 411.982483,456.999664 
	C392.817810,456.999664 373.652924,457.043549 354.488708,456.950684 
	C351.763702,456.937469 350.270691,457.637115 348.792999,460.224213 
	C335.960236,482.692078 322.909088,505.035492 309.869568,527.384827 
	C294.931580,552.988098 279.873230,578.521301 264.988495,604.155396 
	C249.856247,630.215698 234.940170,656.401489 219.802536,682.458618 
	C205.980087,706.251831 191.971832,729.937073 178.075989,753.687744 
	C168.814911,769.516785 159.580780,785.361755 150.383133,801.227783 
	C140.361725,818.514709 130.432373,835.855103 120.395905,853.133240 
	C111.513313,868.424866 102.521523,883.653076 93.609169,898.927429 
	C83.785980,915.762878 73.974213,932.605103 64.202477,949.470459 
	C55.171471,965.057312 46.330887,980.756714 37.096382,996.221436 
	C35.153923,999.474365 34.675808,1001.929626 36.599056,1005.231628 
	C45.582661,1020.655457 54.348778,1036.205811 63.307671,1051.644165 
	C79.829773,1080.115967 96.428688,1108.543091 113.002563,1136.984741 
	C131.968903,1169.532104 150.942780,1202.074829 170.085648,1235.341309 
z"/>
<path fill="#808080" opacity="1.000000" stroke="none" 
	d="
M169.999512,1234.980469 
	C150.942780,1202.074829 131.968903,1169.532104 113.002563,1136.984741 
	C96.428688,1108.543091 79.829773,1080.115967 63.307671,1051.644165 
	C54.348778,1036.205811 45.582661,1020.655457 36.599056,1005.231628 
	C34.675808,1001.929626 35.153923,999.474365 37.096382,996.221436 
	C46.330887,980.756714 55.171471,965.057312 64.202477,949.470459 
	C73.974213,932.605103 83.785980,915.762878 93.609169,898.927429 
	C102.521523,883.653076 111.513313,868.424866 120.395905,853.133240 
	C130.432373,835.855103 140.361725,818.514709 150.383133,801.227783 
	C159.580780,785.361755 168.814911,769.516785 178.075989,753.687744 
	C191.971832,729.937073 205.980087,706.251831 219.802536,682.458618 
	C234.940170,656.401489 249.856247,630.215698 264.988495,604.155396 
	C279.873230,578.521301 294.931580,552.988098 309.869568,527.384827 
	C322.909088,505.035492 335.960236,482.692078 348.792999,460.224213 
	C350.270691,457.637115 351.763702,456.937469 354.488708,456.950684 
	C373.652924,457.043549 392.817810,456.999664 411.982483,456.999664 
	C600.796143,456.999664 789.609741,457.016510 978.423340,456.892212 
	C982.667297,456.889404 984.996216,458.354065 986.996277,461.810852 
	C1002.251953,488.177094 1017.663208,514.453308 1032.935425,540.809937 
	C1050.342285,570.850464 1067.584839,600.986267 1085.030762,631.003967 
	C1100.912964,658.331177 1117.052246,685.508850 1132.931885,712.837463 
	C1151.692383,745.124268 1170.239624,777.535095 1188.986450,809.829956 
	C1202.469116,833.056152 1216.182983,856.147949 1229.691162,879.359375 
	C1243.449097,902.999756 1257.048584,926.732300 1270.780396,950.388000 
	C1279.657837,965.681274 1288.632812,980.918030 1297.601440,996.158264 
	C1299.407959,999.228027 1300.265137,1001.729858 1298.025879,1005.473145 
	C1283.564087,1029.649292 1269.431763,1054.023438 1255.288696,1078.389160 
	C1242.543701,1100.345947 1229.985962,1122.411499 1217.229736,1144.361572 
	C1205.053711,1165.313110 1192.663818,1186.140259 1180.488403,1207.092041 
	C1170.119629,1224.935059 1159.966553,1242.903076 1149.635742,1260.768188 
	C1139.879517,1277.639893 1130.000854,1294.440674 1120.203979,1311.288940 
	C1111.067993,1327.000977 1101.990234,1342.747070 1092.847778,1358.455444 
	C1082.960815,1375.442749 1073.029907,1392.404663 1063.115967,1409.376221 
	C1054.110596,1424.792725 1045.083252,1440.196289 1036.100586,1455.625854 
	C1026.956543,1471.332520 1017.843689,1487.057373 1008.739258,1502.786987 
	C1001.108704,1515.970337 993.574280,1529.210327 985.797607,1542.306763 
	C985.015320,1543.624268 982.925415,1544.317871 981.302063,1544.927612 
	C980.279663,1545.311768 978.995911,1545.000122 977.829346,1545.000122 
	C770.850952,1545.000244 563.872498,1544.985718 356.894104,1545.090454 
	C352.124908,1545.092896 349.459564,1544.006226 346.902832,1539.452637 
	C335.040527,1518.324951 322.486542,1497.587036 310.308624,1476.634888 
	C297.551086,1454.685547 285.002747,1432.614624 272.246582,1410.664429 
	C260.070801,1389.713013 247.680298,1368.886230 235.504776,1347.934570 
	C225.135834,1330.091797 214.982315,1312.124146 204.652405,1294.258545 
	C194.896790,1277.386353 185.043686,1260.570312 175.212524,1243.741821 
	C173.558090,1240.909790 171.797318,1238.139893 169.999512,1234.980469 
M1001.071960,923.500000 
	C1001.071960,838.106628 1001.071960,752.713257 1001.071960,667.440430 
	C778.183533,667.440430 556.156921,667.440430 334.165405,667.440430 
	C334.165405,889.736328 334.165405,1111.605591 334.165405,1334.078369 
	C556.603943,1334.078369 778.640991,1334.078369 1001.071960,1334.078369 
	C1001.071960,1197.417114 1001.071960,1060.958496 1001.071960,923.500000 
z"/>
<path fill="#000000" opacity="1.000000" stroke="none" 
	d="
M1001.071960,924.000000 
	C1001.071960,1060.958496 1001.071960,1197.417114 1001.071960,1334.078369 
	C778.640991,1334.078369 556.603943,1334.078369 334.165405,1334.078369 
	C334.165405,1111.605591 334.165405,889.736328 334.165405,667.440430 
	C556.156921,667.440430 778.183533,667.440430 1001.071960,667.440430 
	C1001.071960,752.713257 1001.071960,838.106628 1001.071960,924.000000 
M868.505066,1279.993652 
	C870.639465,1279.631714 872.788330,1279.339111 874.906128,1278.897339 
	C897.744324,1274.133545 917.951782,1264.670166 932.306702,1245.496094 
	C948.281250,1224.158691 950.538574,1199.767822 946.365051,1174.503662 
	C941.884766,1147.382202 925.516296,1128.182861 902.265686,1115.239746 
	C884.712769,1105.468262 866.045593,1097.688599 847.816406,1089.145752 
	C836.963379,1084.059570 825.628601,1079.759155 817.362061,1070.532104 
	C804.583618,1056.268799 810.118408,1033.576904 827.947266,1026.747803 
	C840.526001,1021.929626 852.178711,1024.789185 863.319580,1031.178955 
	C871.135376,1035.661499 876.853577,1042.228882 881.052551,1051.167725 
	C897.632690,1040.447998 913.593323,1030.128784 929.647217,1019.749207 
	C919.755188,1003.318359 908.512146,989.919128 892.529968,981.681458 
	C860.898743,965.377991 828.252075,965.412354 796.002686,979.139954 
	C775.108459,988.033997 759.475952,1003.479980 753.004944,1025.811890 
	C741.695435,1064.841919 751.286865,1106.726074 792.692505,1130.474731 
	C809.532593,1140.133423 827.726562,1147.413086 845.173767,1156.039673 
	C854.692383,1160.745972 864.677673,1164.998901 873.148987,1171.228760 
	C889.719910,1183.415283 890.044739,1204.556274 874.810120,1216.478027 
	C867.666870,1222.067871 859.454895,1225.210938 850.481873,1226.000610 
	C825.279602,1228.218628 804.970032,1218.620850 788.659729,1199.799316 
	C785.653137,1196.329834 782.965454,1192.583984 780.021973,1188.827026 
	C763.206360,1198.640137 746.748840,1208.244263 730.036621,1217.996948 
	C739.346619,1234.403687 750.308472,1247.890381 764.746277,1258.250610 
	C795.809814,1280.541138 830.734192,1285.070557 868.505066,1279.993652 
M695.986938,1019.500000 
	C695.986938,1004.374390 695.986938,989.248840 695.986938,973.832703 
	C675.067932,973.832703 654.679993,973.832703 633.864319,973.832703 
	C633.864319,976.358337 633.863953,978.503967 633.864380,980.649597 
	C633.877502,1045.642090 634.015137,1110.635010 633.771729,1175.626587 
	C633.734558,1185.553345 632.530701,1195.580322 630.777222,1205.365601 
	C629.154907,1214.419312 623.443420,1220.725830 614.479736,1224.031128 
	C599.054626,1229.719482 585.740112,1225.605225 574.557434,1214.781128 
	C568.583679,1208.998779 564.175598,1201.598877 558.632568,1194.370483 
	C542.472412,1204.143677 525.622437,1214.334106 508.654968,1224.595459 
	C521.242981,1248.007690 537.452332,1266.233643 562.244446,1275.062134 
	C589.636353,1284.816650 617.205505,1284.492676 644.486389,1274.686157 
	C670.485535,1265.340576 686.171387,1246.524902 691.528137,1219.647339 
	C693.958923,1207.451294 695.613708,1194.890137 695.721680,1182.477905 
	C696.191406,1128.488647 695.962158,1074.493164 695.986938,1019.500000 
z"/>
<path fill="#7F7F7F" opacity="1.000000" stroke="none" 
	d="
M868.069275,1280.041992 
	C830.734192,1285.070557 795.809814,1280.541138 764.746277,1258.250610 
	C750.308472,1247.890381 739.346619,1234.403687 730.036621,1217.996948 
	C746.748840,1208.244263 763.206360,1198.640137 780.021973,1188.827026 
	C782.965454,1192.583984 785.653137,1196.329834 788.659729,1199.799316 
	C804.970032,1218.620850 825.279602,1228.218628 850.481873,1226.000610 
	C859.454895,1225.210938 867.666870,1222.067871 874.810120,1216.478027 
	C890.044739,1204.556274 889.719910,1183.415283 873.148987,1171.228760 
	C864.677673,1164.998901 854.692383,1160.745972 845.173767,1156.039673 
	C827.726562,1147.413086 809.532593,1140.133423 792.692505,1130.474731 
	C751.286865,1106.726074 741.695435,1064.841919 753.004944,1025.811890 
	C759.475952,1003.479980 775.108459,988.033997 796.002686,979.139954 
	C828.252075,965.412354 860.898743,965.377991 892.529968,981.681458 
	C908.512146,989.919128 919.755188,1003.318359 929.647217,1019.749207 
	C913.593323,1030.128784 897.632690,1040.447998 881.052551,1051.167725 
	C876.853577,1042.228882 871.135376,1035.661499 863.319580,1031.178955 
	C852.178711,1024.789185 840.526001,1021.929626 827.947266,1026.747803 
	C810.118408,1033.576904 804.583618,1056.268799 817.362061,1070.532104 
	C825.628601,1079.759155 836.963379,1084.059570 847.816406,1089.145752 
	C866.045593,1097.688599 884.712769,1105.468262 902.265686,1115.239746 
	C925.516296,1128.182861 941.884766,1147.382202 946.365051,1174.503662 
	C950.538574,1199.767822 948.281250,1224.158691 932.306702,1245.496094 
	C917.951782,1264.670166 897.744324,1274.133545 874.906128,1278.897339 
	C872.788330,1279.339111 870.639465,1279.631714 868.069275,1280.041992 
z"/>
<path fill="#7F7F7F" opacity="1.000000" stroke="none" 
	d="
M695.986938,1020.000000 
	C695.962158,1074.493164 696.191406,1128.488647 695.721680,1182.477905 
	C695.613708,1194.890137 693.958923,1207.451294 691.528137,1219.647339 
	C686.171387,1246.524902 670.485535,1265.340576 644.486389,1274.686157 
	C617.205505,1284.492676 589.636353,1284.816650 562.244446,1275.062134 
	C537.452332,1266.233643 521.242981,1248.007690 508.654968,1224.595459 
	C525.622437,1214.334106 542.472412,1204.143677 558.632568,1194.370483 
	C564.175598,1201.598877 568.583679,1208.998779 574.557434,1214.781128 
	C585.740112,1225.605225 599.054626,1229.719482 614.479736,1224.031128 
	C623.443420,1220.725830 629.154907,1214.419312 630.777222,1205.365601 
	C632.530701,1195.580322 633.734558,1185.553345 633.771729,1175.626587 
	C634.015137,1110.635010 633.877502,1045.642090 633.864380,980.649597 
	C633.863953,978.503967 633.864319,976.358337 633.864319,973.832703 
	C654.679993,973.832703 675.067932,973.832703 695.986938,973.832703 
	C695.986938,989.248840 695.986938,1004.374390 695.986938,1020.000000 
z"/>
</svg>