<svg version="1.1" id="Layer_1" xmlns="http://www.w3.org/2000/svg" xmlns:xlink="http://www.w3.org/1999/xlink" x="0px" y="0px"
	 width="100%" viewBox="0 0 1333 2000" enable-background="new 0 0 1333 2000" xml:space="preserve">
<path fill="#000000" opacity="1.000000" stroke="none" 
	d="
M763.000000,2001.000000 
	C508.666687,2001.000000 254.833389,2001.000000 1.000068,2001.000000 
	C1.000045,1334.333496 1.000045,667.666870 1.000023,1.000247 
	C445.333160,1.000165 889.666321,1.000165 1333.999634,1.000082 
	C1333.999756,667.666443 1333.999756,1334.332886 1333.999878,2000.999634 
	C1143.833374,2001.000000 953.666687,2001.000000 763.000000,2001.000000 
M878.500000,1545.000000 
	C912.494080,1545.000000 946.488159,1544.975220 980.482056,1545.047119 
	C983.194214,1545.052856 984.730713,1544.441040 986.203308,1541.805176 
	C992.592468,1530.369019 999.450378,1519.196045 1006.014709,1507.856079 
	C1024.723267,1475.536255 1043.303589,1443.141846 1062.064697,1410.852539 
	C1077.944824,1383.521851 1094.084961,1356.342285 1109.967651,1329.012939 
	C1127.414185,1298.993042 1144.626953,1268.837402 1162.073364,1238.817505 
	C1177.956055,1211.488281 1194.093750,1184.307129 1209.974854,1156.976929 
	C1225.115112,1130.921387 1240.012939,1104.725098 1255.120728,1078.650391 
	C1269.328125,1054.129761 1283.557251,1029.619873 1298.084595,1005.289001 
	C1300.082642,1001.942566 1299.607666,999.684326 1297.971313,996.864441 
	C1288.272095,980.148987 1278.652832,963.386963 1268.908447,946.697876 
	C1252.970337,919.400696 1236.883545,892.190247 1220.996826,864.863281 
	C1205.850464,838.809448 1190.946899,812.614441 1175.812744,786.553467 
	C1160.677246,760.489746 1145.345825,734.539917 1130.181885,708.492554 
	C1120.295532,691.510559 1110.610596,674.411255 1100.734253,657.423462 
	C1089.457886,638.027405 1078.008423,618.731934 1066.745361,599.328247 
	C1053.999390,577.370056 1041.442993,555.302002 1028.683350,533.351868 
	C1015.020386,509.847626 1001.098450,486.492920 987.580566,462.906158 
	C985.056763,458.502472 982.355347,456.869232 977.184814,456.872955 
	C770.357971,457.021942 563.531067,456.999969 356.704193,457.000031 
	C355.537567,457.000031 354.281616,456.726898 353.226532,457.070312 
	C351.854034,457.517059 350.107910,458.131592 349.443207,459.230652 
	C343.767242,468.615814 338.271576,478.110718 332.775757,487.603912 
	C319.070770,511.277344 305.436218,534.991577 291.693695,558.643127 
	C279.022339,580.451172 266.200256,602.171631 253.531845,623.981323 
	C242.178833,643.526245 231.008774,663.177673 219.641922,682.714539 
	C205.969788,706.213562 192.161606,729.633423 178.437729,753.102417 
	C169.096100,769.077393 159.770142,785.061768 150.487976,801.071411 
	C140.464813,818.359009 130.534119,835.700195 120.500999,852.981934 
	C111.620750,868.277832 102.642975,883.516968 93.730827,898.794373 
	C83.826218,915.773071 73.931511,932.757568 64.061546,949.756348 
	C55.015873,965.335571 46.107468,980.995911 36.901260,996.479309 
	C35.073822,999.552856 34.701836,1001.977600 36.505356,1005.088379 
	C49.155769,1026.908447 61.637703,1048.826050 74.308784,1070.634033 
	C87.967026,1094.140991 101.782829,1117.556641 115.510521,1141.023315 
	C124.938805,1157.140381 134.364838,1173.259033 143.735611,1189.409546 
	C153.764221,1206.693848 163.699875,1224.031982 173.726242,1241.317627 
	C182.517502,1256.473755 191.395462,1271.579590 200.203613,1286.725952 
	C210.165604,1303.856323 220.085953,1321.010864 230.036423,1338.147949 
	C239.001312,1353.587891 247.974884,1369.022705 256.958282,1384.451904 
	C265.942169,1399.881714 274.975494,1415.282959 283.927094,1430.731445 
	C292.876953,1446.176880 301.693939,1461.699341 310.675049,1477.126587 
	C322.868317,1498.071655 335.336761,1518.859497 347.258118,1539.957275 
	C349.498840,1543.922852 351.694855,1545.093872 356.016296,1545.091187 
	C529.844177,1544.984253 703.672058,1545.000000 878.500000,1545.000000 
z"/>
<path fill="#808080" opacity="1.000000" stroke="none" 
	d="
M878.000000,1545.000000 
	C703.672058,1545.000000 529.844177,1544.984253 356.016296,1545.091187 
	C351.694855,1545.093872 349.498840,1543.922852 347.258118,1539.957275 
	C335.336761,1518.859497 322.868317,1498.071655 310.675049,1477.126587 
	C301.693939,1461.699341 292.876953,1446.176880 283.927094,1430.731445 
	C274.975494,1415.282959 265.942169,1399.881714 256.958282,1384.451904 
	C247.974884,1369.022705 239.001312,1353.587891 230.036423,1338.147949 
	C220.085953,1321.010864 210.165604,1303.856323 200.203613,1286.725952 
	C191.395462,1271.579590 182.517502,1256.473755 173.726242,1241.317627 
	C163.699875,1224.031982 153.764221,1206.693848 143.735611,1189.409546 
	C134.364838,1173.259033 124.938805,1157.140381 115.510521,1141.023315 
	C101.782829,1117.556641 87.967026,1094.140991 74.308784,1070.634033 
	C61.637703,1048.826050 49.155769,1026.908447 36.505356,1005.088379 
	C34.701836,1001.977600 35.073822,999.552856 36.901260,996.479309 
	C46.107468,980.995911 55.015873,965.335571 64.061546,949.756348 
	C73.931511,932.757568 83.826218,915.773071 93.730827,898.794373 
	C102.642975,883.516968 111.620750,868.277832 120.500999,852.981934 
	C130.534119,835.700195 140.464813,818.359009 150.487976,801.071411 
	C159.770142,785.061768 169.096100,769.077393 178.437729,753.102417 
	C192.161606,729.633423 205.969788,706.213562 219.641922,682.714539 
	C231.008774,663.177673 242.178833,643.526245 253.531845,623.981323 
	C266.200256,602.171631 279.022339,580.451172 291.693695,558.643127 
	C305.436218,534.991577 319.070770,511.277344 332.775757,487.603912 
	C338.271576,478.110718 343.767242,468.615814 349.443207,459.230652 
	C350.107910,458.131592 351.854034,457.517059 353.226532,457.070312 
	C354.281616,456.726898 355.537567,457.000031 356.704193,457.000031 
	C563.531067,456.999969 770.357971,457.021942 977.184814,456.872955 
	C982.355347,456.869232 985.056763,458.502472 987.580566,462.906158 
	C1001.098450,486.492920 1015.020386,509.847626 1028.683350,533.351868 
	C1041.442993,555.302002 1053.999390,577.370056 1066.745361,599.328247 
	C1078.008423,618.731934 1089.457886,638.027405 1100.734253,657.423462 
	C1110.610596,674.411255 1120.295532,691.510559 1130.181885,708.492554 
	C1145.345825,734.539917 1160.677246,760.489746 1175.812744,786.553467 
	C1190.946899,812.614441 1205.850464,838.809448 1220.996826,864.863281 
	C1236.883545,892.190247 1252.970337,919.400696 1268.908447,946.697876 
	C1278.652832,963.386963 1288.272095,980.148987 1297.971313,996.864441 
	C1299.607666,999.684326 1300.082642,1001.942566 1298.084595,1005.289001 
	C1283.557251,1029.619873 1269.328125,1054.129761 1255.120728,1078.650391 
	C1240.012939,1104.725098 1225.115112,1130.921387 1209.974854,1156.976929 
	C1194.093750,1184.307129 1177.956055,1211.488281 1162.073364,1238.817505 
	C1144.626953,1268.837402 1127.414185,1298.993042 1109.967651,1329.012939 
	C1094.084961,1356.342285 1077.944824,1383.521851 1062.064697,1410.852539 
	C1043.303589,1443.141846 1024.723267,1475.536255 1006.014709,1507.856079 
	C999.450378,1519.196045 992.592468,1530.369019 986.203308,1541.805176 
	C984.730713,1544.441040 983.194214,1545.052856 980.482056,1545.047119 
	C946.488159,1544.975220 912.494080,1545.000000 878.000000,1545.000000 
M787.818787,770.664917 
	C750.756287,746.929260 710.171265,737.425110 666.738159,743.394592 
	C610.453979,751.130249 567.172058,780.014893 536.897705,828.065674 
	C523.768311,848.904419 515.715454,871.737854 512.669922,896.202759 
	C512.085632,900.896484 510.332550,902.456970 505.735229,902.088074 
	C501.608887,901.757019 497.375366,901.806213 493.269470,902.324341 
	C455.174774,907.131714 421.640961,922.064087 393.050079,947.842407 
	C360.278625,977.389954 341.337219,1014.543091 335.368378,1057.798340 
	C332.414673,1079.203247 334.049683,1100.976318 339.021118,1122.334839 
	C357.313110,1200.921387 428.361115,1259.343140 508.886444,1259.899902 
	C613.689331,1260.624268 718.500671,1260.124390 823.308411,1260.080200 
	C829.093384,1260.077759 834.889465,1259.553955 840.660767,1259.048218 
	C858.199036,1257.511597 875.083008,1253.036499 891.145996,1246.059326 
	C964.066406,1214.385742 1011.202515,1140.658447 998.395813,1055.655151 
	C987.232239,981.558044 943.524719,933.017151 872.582703,909.080383 
	C869.987122,908.204590 868.823181,907.097778 868.552856,904.367249 
	C868.061462,899.403870 867.366455,894.444153 866.438599,889.543091 
	C856.910522,839.212585 830.739136,799.815735 787.818787,770.664917 
z"/>
<path fill="#000000" opacity="1.000000" stroke="none" 
	d="
M788.120483,770.863953 
	C830.739136,799.815735 856.910522,839.212585 866.438599,889.543091 
	C867.366455,894.444153 868.061462,899.403870 868.552856,904.367249 
	C868.823181,907.097778 869.987122,908.204590 872.582703,909.080383 
	C943.524719,933.017151 987.232239,981.558044 998.395813,1055.655151 
	C1011.202515,1140.658447 964.066406,1214.385742 891.145996,1246.059326 
	C875.083008,1253.036499 858.199036,1257.511597 840.660767,1259.048218 
	C834.889465,1259.553955 829.093384,1260.077759 823.308411,1260.080200 
	C718.500671,1260.124390 613.689331,1260.624268 508.886444,1259.899902 
	C428.361115,1259.343140 357.313110,1200.921387 339.021118,1122.334839 
	C334.049683,1100.976318 332.414673,1079.203247 335.368378,1057.798340 
	C341.337219,1014.543091 360.278625,977.389954 393.050079,947.842407 
	C421.640961,922.064087 455.174774,907.131714 493.269470,902.324341 
	C497.375366,901.806213 501.608887,901.757019 505.735229,902.088074 
	C510.332550,902.456970 512.085632,900.896484 512.669922,896.202759 
	C515.715454,871.737854 523.768311,848.904419 536.897705,828.065674 
	C567.172058,780.014893 610.453979,751.130249 666.738159,743.394592 
	C710.171265,737.425110 750.756287,746.929260 788.120483,770.863953 
M605.006409,1154.604492 
	C606.588318,1153.682129 608.232056,1152.850830 609.742371,1151.823364 
	C622.588013,1143.084229 630.419373,1132.004272 630.208679,1115.408447 
	C629.699219,1075.262939 630.043335,1035.106689 630.043335,994.954712 
	C630.043335,993.030518 630.043335,991.106323 630.043335,988.455933 
	C639.621643,990.229309 648.354614,991.786255 657.063171,993.469604 
	C683.413147,998.563416 709.721741,1003.882568 736.128235,1008.661987 
	C740.697876,1009.489075 741.771423,1011.066162 741.752014,1015.308655 
	C741.613342,1045.630249 741.677979,1075.952637 741.677979,1106.274902 
	C741.677979,1108.064209 741.677979,1109.853638 741.677979,1112.007324 
	C739.914978,1112.007324 738.783997,1112.060181 737.659180,1111.999023 
	C726.490601,1111.390625 716.059998,1113.513550 706.536865,1119.736694 
	C694.635132,1127.514282 686.415283,1138.215454 686.263062,1152.411743 
	C685.991638,1177.720337 706.982910,1189.008179 727.838196,1188.707275 
	C734.064880,1188.617432 740.446899,1186.222412 746.417664,1183.978638 
	C762.517395,1177.928345 775.582092,1161.440186 775.383545,1142.956177 
	C774.748108,1083.817993 775.147583,1024.668823 775.147522,965.523865 
	C775.147522,963.435059 775.147522,961.346313 775.147522,959.396362 
	C715.282227,949.093872 656.252808,938.935181 596.333130,928.623352 
	C596.333130,980.788269 596.333130,1032.281006 596.333130,1084.077515 
	C593.893311,1084.077515 592.252563,1084.117310 590.614197,1084.071167 
	C576.024658,1083.660034 563.383545,1088.627563 553.079224,1098.752441 
	C543.535522,1108.130005 538.541321,1119.579468 541.711426,1133.169312 
	C544.985901,1147.206787 554.750793,1155.086914 568.138489,1159.066772 
	C580.800842,1162.830688 592.713623,1160.210205 605.006409,1154.604492 
z"/>
<path fill="#808080" opacity="1.000000" stroke="none" 
	d="
M604.669189,1154.767090 
	C592.713623,1160.210205 580.800842,1162.830688 568.138489,1159.066772 
	C554.750793,1155.086914 544.985901,1147.206787 541.711426,1133.169312 
	C538.541321,1119.579468 543.535522,1108.130005 553.079224,1098.752441 
	C563.383545,1088.627563 576.024658,1083.660034 590.614197,1084.071167 
	C592.252563,1084.117310 593.893311,1084.077515 596.333130,1084.077515 
	C596.333130,1032.281006 596.333130,980.788269 596.333130,928.623352 
	C656.252808,938.935181 715.282227,949.093872 775.147522,959.396362 
	C775.147522,961.346313 775.147522,963.435059 775.147522,965.523865 
	C775.147583,1024.668823 774.748108,1083.817993 775.383545,1142.956177 
	C775.582092,1161.440186 762.517395,1177.928345 746.417664,1183.978638 
	C740.446899,1186.222412 734.064880,1188.617432 727.838196,1188.707275 
	C706.982910,1189.008179 685.991638,1177.720337 686.263062,1152.411743 
	C686.415283,1138.215454 694.635132,1127.514282 706.536865,1119.736694 
	C716.059998,1113.513550 726.490601,1111.390625 737.659180,1111.999023 
	C738.783997,1112.060181 739.914978,1112.007324 741.677979,1112.007324 
	C741.677979,1109.853638 741.677979,1108.064209 741.677979,1106.274902 
	C741.677979,1075.952637 741.613342,1045.630249 741.752014,1015.308655 
	C741.771423,1011.066162 740.697876,1009.489075 736.128235,1008.661987 
	C709.721741,1003.882568 683.413147,998.563416 657.063171,993.469604 
	C648.354614,991.786255 639.621643,990.229309 630.043335,988.455933 
	C630.043335,991.106323 630.043335,993.030518 630.043335,994.954712 
	C630.043335,1035.106689 629.699219,1075.262939 630.208679,1115.408447 
	C630.419373,1132.004272 622.588013,1143.084229 609.742371,1151.823364 
	C608.232056,1152.850830 606.588318,1153.682129 604.669189,1154.767090 
z"/>
</svg>