<svg xmlns="http://www.w3.org/2000/svg" xmlns:xlink="http://www.w3.org/1999/xlink" width="400" zoomAndPan="magnify" viewBox="0 0 300 299.999988" height="400" preserveAspectRatio="xMidYMid meet" version="1.0"><path fill="#000000" d="M 240.71875 108.113281 C 237.644531 66.3125 202.839844 33.332031 160.257812 33.332031 C 118.675781 33.332031 84.460938 64.769531 80.007812 105.167969 C 35.757812 105.578125 0 141.546875 0 185.898438 C 0 230.503906 36.164062 266.667969 80.769531 266.667969 L 219.230469 266.667969 C 263.835938 266.667969 300 230.503906 300 185.898438 C 300 148.75 274.878906 117.53125 240.71875 108.113281 Z M 198.492188 216.617188 C 197.925781 223.792969 191.847656 230.628906 183.449219 233.277344 C 172.882812 236.597656 162.035156 232.050781 159.226562 223.105469 C 156.410156 214.183594 162.695312 204.238281 173.257812 200.90625 C 176.699219 199.820312 180.152344 199.652344 183.363281 200.128906 L 183.363281 153.773438 L 133.15625 144.230469 L 133.15625 204.917969 C 132.257812 211.804688 125.988281 218.25 117.886719 220.796875 C 107.324219 224.117188 96.480469 219.566406 93.664062 210.636719 C 90.847656 201.691406 97.128906 191.746094 107.695312 188.425781 C 111.222656 187.3125 114.753906 187.160156 118.03125 187.667969 L 118.03125 117.351562 L 198.492188 131.21875 Z M 198.492188 216.617188 " fill-opacity="1" fill-rule="nonzero"/></svg>