<svg version="1.1" id="Layer_1" xmlns="http://www.w3.org/2000/svg" xmlns:xlink="http://www.w3.org/1999/xlink" x="0px" y="0px"
	 width="100%" viewBox="0 0 1333 2000" enable-background="new 0 0 1333 2000" xml:space="preserve">
<path fill="#000000" opacity="1.000000" stroke="none" 
	d="
M715.000000,2001.000000 
	C476.666687,2001.000000 238.833389,2001.000000 1.000064,2001.000000 
	C1.000043,1334.333496 1.000043,667.666870 1.000021,1.000243 
	C445.333160,1.000162 889.666321,1.000162 1333.999634,1.000081 
	C1333.999756,667.666443 1333.999756,1334.332886 1333.999878,2000.999634 
	C1127.833374,2001.000000 921.666687,2001.000000 715.000000,2001.000000 
M380.500000,1545.000610 
	C579.327271,1545.000610 778.154602,1545.000610 976.981873,1545.000610 
	C978.315125,1545.000610 979.767395,1545.338257 980.953613,1544.920532 
	C982.714111,1544.300659 984.971436,1543.561401 985.826782,1542.151001 
	C991.090881,1533.470703 995.968750,1524.557495 1001.070923,1515.777344 
	C1017.694092,1487.171143 1034.346680,1458.582031 1051.010132,1429.999146 
	C1069.652466,1398.022217 1088.369873,1366.089111 1106.960205,1334.082031 
	C1125.385498,1302.359131 1143.630615,1270.531372 1162.072021,1238.817749 
	C1177.961670,1211.492432 1194.094360,1184.308472 1209.975220,1156.978149 
	C1225.115479,1130.922485 1240.013550,1104.726196 1255.121216,1078.651611 
	C1269.328613,1054.130981 1283.557861,1029.621094 1298.085083,1005.290039 
	C1300.082886,1001.944153 1299.609375,999.686401 1297.972290,996.865417 
	C1288.272583,980.150208 1278.653809,963.387756 1268.909546,946.698669 
	C1252.971436,919.401489 1236.884521,892.191040 1220.997803,864.864014 
	C1205.851318,838.810242 1190.947998,812.615112 1175.814087,786.553955 
	C1160.678589,760.490173 1145.347168,734.540283 1130.183228,708.492920 
	C1120.296875,691.510925 1110.611816,674.411621 1100.735474,657.423767 
	C1089.458984,638.027771 1078.009399,618.732361 1066.746460,599.328552 
	C1054.000610,577.370300 1041.443970,555.302185 1028.684448,533.351990 
	C1015.021362,509.847717 1001.099365,486.493011 987.581482,462.906219 
	C985.057678,458.502625 982.357056,456.868469 977.186035,456.872192 
	C770.363220,457.021210 563.540344,456.999207 356.717468,456.999237 
	C355.717529,456.999237 354.603271,456.715393 353.742218,457.061371 
	C352.123077,457.711945 350.001190,458.337555 349.215576,459.648895 
	C340.210724,474.679718 331.401703,489.828156 322.573730,504.964630 
	C312.752899,521.803467 302.956726,538.656677 293.167694,555.513977 
	C284.039886,571.232666 274.922760,586.957581 265.824707,602.693542 
	C256.807861,618.289001 247.845230,633.915833 238.813614,649.502625 
	C229.943970,664.809814 221.017441,680.084045 212.116089,695.372803 
	C202.063782,712.638489 192.009491,729.903015 181.960266,747.170471 
	C172.979782,762.601501 164.009949,778.038818 155.026428,793.468140 
	C146.042648,808.897827 137.017731,824.303711 128.066162,839.752075 
	C119.116196,855.197632 110.286362,870.712830 101.309441,886.142578 
	C91.427299,903.128357 81.410912,920.035950 71.501694,937.005981 
	C59.856907,956.948303 48.176586,976.871338 36.784889,996.957703 
	C35.645985,998.965881 35.411747,1002.561523 36.444363,1004.540100 
	C40.835289,1012.953552 45.904297,1021.010803 50.647148,1029.243408 
	C60.949753,1047.126343 71.128448,1065.081299 81.498184,1082.925171 
	C93.674629,1103.878174 106.065742,1124.706543 118.242493,1145.659424 
	C130.999634,1167.611084 143.546127,1189.685181 156.307480,1211.634399 
	C169.806870,1234.853027 183.523788,1257.945435 197.012558,1281.170166 
	C212.148483,1307.230835 227.069443,1333.416260 242.205597,1359.476929 
	C257.342926,1385.539551 272.669067,1411.492554 287.838715,1437.536621 
	C297.812164,1454.659546 307.623199,1471.877197 317.565002,1489.018677 
	C327.751740,1506.582642 338.069153,1524.071045 348.168121,1541.685181 
	C349.606476,1544.193726 351.156830,1545.121826 354.002563,1545.063232 
	C362.498535,1544.888306 371.000427,1545.000488 380.500000,1545.000610 
z"/>
<path fill="#808080" opacity="1.000000" stroke="none" 
	d="
M380.000000,1545.000610 
	C371.000427,1545.000488 362.498535,1544.888306 354.002563,1545.063232 
	C351.156830,1545.121826 349.606476,1544.193726 348.168121,1541.685181 
	C338.069153,1524.071045 327.751740,1506.582642 317.565002,1489.018677 
	C307.623199,1471.877197 297.812164,1454.659546 287.838715,1437.536621 
	C272.669067,1411.492554 257.342926,1385.539551 242.205597,1359.476929 
	C227.069443,1333.416260 212.148483,1307.230835 197.012558,1281.170166 
	C183.523788,1257.945435 169.806870,1234.853027 156.307480,1211.634399 
	C143.546127,1189.685181 130.999634,1167.611084 118.242493,1145.659424 
	C106.065742,1124.706543 93.674629,1103.878174 81.498184,1082.925171 
	C71.128448,1065.081299 60.949753,1047.126343 50.647148,1029.243408 
	C45.904297,1021.010803 40.835289,1012.953552 36.444363,1004.540100 
	C35.411747,1002.561523 35.645985,998.965881 36.784889,996.957703 
	C48.176586,976.871338 59.856907,956.948303 71.501694,937.005981 
	C81.410912,920.035950 91.427299,903.128357 101.309441,886.142578 
	C110.286362,870.712830 119.116196,855.197632 128.066162,839.752075 
	C137.017731,824.303711 146.042648,808.897827 155.026428,793.468140 
	C164.009949,778.038818 172.979782,762.601501 181.960266,747.170471 
	C192.009491,729.903015 202.063782,712.638489 212.116089,695.372803 
	C221.017441,680.084045 229.943970,664.809814 238.813614,649.502625 
	C247.845230,633.915833 256.807861,618.289001 265.824707,602.693542 
	C274.922760,586.957581 284.039886,571.232666 293.167694,555.513977 
	C302.956726,538.656677 312.752899,521.803467 322.573730,504.964630 
	C331.401703,489.828156 340.210724,474.679718 349.215576,459.648895 
	C350.001190,458.337555 352.123077,457.711945 353.742218,457.061371 
	C354.603271,456.715393 355.717529,456.999237 356.717468,456.999237 
	C563.540344,456.999207 770.363220,457.021210 977.186035,456.872192 
	C982.357056,456.868469 985.057678,458.502625 987.581482,462.906219 
	C1001.099365,486.493011 1015.021362,509.847717 1028.684448,533.351990 
	C1041.443970,555.302185 1054.000610,577.370300 1066.746460,599.328552 
	C1078.009399,618.732361 1089.458984,638.027771 1100.735474,657.423767 
	C1110.611816,674.411621 1120.296875,691.510925 1130.183228,708.492920 
	C1145.347168,734.540283 1160.678589,760.490173 1175.814087,786.553955 
	C1190.947998,812.615112 1205.851318,838.810242 1220.997803,864.864014 
	C1236.884521,892.191040 1252.971436,919.401489 1268.909546,946.698669 
	C1278.653809,963.387756 1288.272583,980.150208 1297.972290,996.865417 
	C1299.609375,999.686401 1300.082886,1001.944153 1298.085083,1005.290039 
	C1283.557861,1029.621094 1269.328613,1054.130981 1255.121216,1078.651611 
	C1240.013550,1104.726196 1225.115479,1130.922485 1209.975220,1156.978149 
	C1194.094360,1184.308472 1177.961670,1211.492432 1162.072021,1238.817749 
	C1143.630615,1270.531372 1125.385498,1302.359131 1106.960205,1334.082031 
	C1088.369873,1366.089111 1069.652466,1398.022217 1051.010132,1429.999146 
	C1034.346680,1458.582031 1017.694092,1487.171143 1001.070923,1515.777344 
	C995.968750,1524.557495 991.090881,1533.470703 985.826782,1542.151001 
	C984.971436,1543.561401 982.714111,1544.300659 980.953613,1544.920532 
	C979.767395,1545.338257 978.315125,1545.000610 976.981873,1545.000610 
	C778.154602,1545.000610 579.327271,1545.000610 380.000000,1545.000610 
M681.231445,642.147522 
	C665.913879,638.691406 651.258789,640.581543 637.796082,648.632141 
	C554.562622,698.405273 471.342560,748.201843 388.287537,798.271667 
	C368.841949,809.994507 358.808167,827.979980 358.767365,850.709045 
	C358.587555,950.875366 358.575348,1051.042358 358.775879,1151.208618 
	C358.821747,1174.126465 369.176697,1191.932251 388.725159,1203.924316 
	C409.460205,1216.644165 430.284027,1229.241211 451.406219,1241.301514 
	C472.825928,1253.531738 495.401855,1261.867065 520.837341,1259.794312 
	C552.943420,1257.177979 577.556885,1243.702881 590.736328,1213.057617 
	C596.773499,1199.019897 598.315491,1184.166992 598.307434,1169.026001 
	C598.257629,1075.026001 598.283203,981.026062 598.277649,887.026123 
	C598.277527,885.027100 598.330139,883.016296 598.143616,881.031128 
	C597.441895,873.560852 592.176819,868.321289 584.668274,868.192017 
	C572.672058,867.985413 560.667236,867.991516 548.670715,868.190430 
	C541.537903,868.308716 536.439392,873.071594 535.428894,880.120667 
	C535.076660,882.577942 535.141968,885.105652 535.141663,887.601196 
	C535.128906,980.434509 535.131287,1073.267822 535.128052,1166.101196 
	C535.127991,1168.767578 535.170654,1171.437622 535.054565,1174.099854 
	C534.489685,1187.053223 524.946289,1196.519897 511.939728,1197.031738 
	C501.577667,1197.439575 492.195007,1194.093140 483.480133,1188.930298 
	C464.270111,1177.549561 445.243622,1165.859253 426.033691,1154.478394 
	C422.731995,1152.522339 421.567566,1150.265625 421.571350,1146.466064 
	C421.666290,1050.799561 421.666779,955.132935 421.570435,859.466370 
	C421.566559,855.647583 422.829681,853.453735 426.072479,851.471130 
	C505.119171,803.143738 584.117859,754.737793 663.057678,706.236023 
	C666.369446,704.201233 668.714844,704.180176 672.046692,706.226440 
	C750.712524,754.537659 829.435669,802.755554 908.225525,850.864075 
	C912.101868,853.230957 913.669922,855.779846 913.663513,860.400513 
	C913.531189,955.567017 913.535950,1050.733765 913.652466,1145.900269 
	C913.657837,1150.297729 912.239136,1152.783813 908.450256,1155.036499 
	C829.674011,1201.872314 750.959290,1248.811768 672.316956,1295.872192 
	C668.596863,1298.098389 665.942871,1297.924438 662.384827,1295.771484 
	C643.423767,1284.299561 624.298401,1273.099487 605.285522,1261.712646 
	C600.042419,1258.572388 595.197937,1258.734009 589.741882,1261.551025 
	C577.485718,1267.879150 564.980957,1273.725952 552.575989,1279.765869 
	C551.379761,1280.348389 550.102539,1280.798218 548.985107,1281.503174 
	C543.374268,1285.044067 542.218628,1291.062622 546.697388,1295.940308 
	C549.237000,1298.706299 552.502197,1300.925659 555.731812,1302.919556 
	C582.387512,1319.376587 609.108948,1335.727051 635.815674,1352.101318 
	C656.497375,1364.781494 677.455933,1365.144775 698.242249,1352.720825 
	C780.771179,1303.393677 863.237000,1253.960571 945.655396,1204.448853 
	C965.841553,1192.322266 976.380737,1174.101807 976.427795,1150.615479 
	C976.627991,1050.782593 976.628601,950.948914 976.429199,851.116089 
	C976.382629,827.815918 965.921509,809.694092 945.919067,797.660645 
	C863.959290,748.353577 781.925598,699.169006 699.819519,650.106079 
	C694.312439,646.815308 687.980286,644.905334 681.231445,642.147522 
M787.908691,1038.495605 
	C795.215210,1041.218262 802.714966,1043.524170 809.767578,1046.794434 
	C815.487854,1049.447021 817.947388,1054.641235 817.972168,1061.127197 
	C818.036072,1077.870972 810.654907,1089.354248 794.135559,1094.627563 
	C784.409241,1097.732300 774.049377,1099.559204 763.851318,1100.329224 
	C743.522217,1101.863892 723.188965,1101.275391 703.501099,1094.891968 
	C688.214233,1089.935547 678.900879,1079.551514 675.750732,1063.735840 
	C675.360596,1061.776978 675.040405,1059.804321 674.655884,1057.844238 
	C673.038940,1049.603394 668.121826,1045.360840 659.741516,1045.266724 
	C650.242859,1045.160278 640.741394,1045.164429 631.242615,1045.262573 
	C621.481689,1045.363403 615.841614,1050.861328 616.116089,1060.519653 
	C617.143250,1096.663208 633.003052,1124.007568 665.039856,1141.352661 
	C684.589844,1151.937256 705.892517,1156.486450 727.841614,1158.207397 
	C757.495850,1160.532593 786.811584,1159.248047 815.158752,1148.968384 
	C859.028381,1133.059814 881.945923,1098.963989 879.775818,1052.485962 
	C878.434998,1023.769226 865.498108,1002.199280 838.594238,991.050110 
	C824.379517,985.159363 809.354919,980.649414 794.278198,977.545593 
	C771.137512,972.781799 747.571472,970.122314 724.317139,965.855042 
	C713.414551,963.854370 702.757080,960.387329 692.113525,957.170959 
	C687.986816,955.924011 685.080322,952.778320 684.219788,948.228149 
	C681.921021,936.073364 686.650146,926.340393 697.855042,921.050598 
	C701.738953,919.217041 705.916504,917.717346 710.122131,916.901306 
	C732.961121,912.469543 755.890503,912.676636 778.689758,916.996887 
	C794.943237,920.076782 805.980774,929.310425 810.364868,945.865967 
	C812.478149,953.846130 817.018616,956.804932 825.477478,956.834839 
	C834.643921,956.867188 843.810608,956.874329 852.976929,956.834106 
	C863.489075,956.787903 869.156067,950.925415 868.339539,940.462524 
	C865.745056,907.219849 849.946472,882.960449 819.180298,869.101685 
	C801.463806,861.121094 782.638916,857.809387 763.431091,856.477783 
	C737.530396,854.682373 711.798584,855.328857 686.690247,863.039246 
	C642.435364,876.629211 620.037842,908.574951 623.150146,954.226318 
	C624.997559,981.324036 638.441040,1000.874634 662.770874,1012.931519 
	C679.398926,1021.171753 697.252563,1025.187988 715.433838,1027.911743 
	C739.304993,1031.488037 763.210022,1034.838257 787.908691,1038.495605 
z"/>
<path fill="#010101" opacity="1.000000" stroke="none" 
	d="
M681.631653,642.250366 
	C687.980286,644.905334 694.312439,646.815308 699.819519,650.106079 
	C781.925598,699.169006 863.959290,748.353577 945.919067,797.660645 
	C965.921509,809.694092 976.382629,827.815918 976.429199,851.116089 
	C976.628601,950.948914 976.627991,1050.782593 976.427795,1150.615479 
	C976.380737,1174.101807 965.841553,1192.322266 945.655396,1204.448853 
	C863.237000,1253.960571 780.771179,1303.393677 698.242249,1352.720825 
	C677.455933,1365.144775 656.497375,1364.781494 635.815674,1352.101318 
	C609.108948,1335.727051 582.387512,1319.376587 555.731812,1302.919556 
	C552.502197,1300.925659 549.237000,1298.706299 546.697388,1295.940308 
	C542.218628,1291.062622 543.374268,1285.044067 548.985107,1281.503174 
	C550.102539,1280.798218 551.379761,1280.348389 552.575989,1279.765869 
	C564.980957,1273.725952 577.485718,1267.879150 589.741882,1261.551025 
	C595.197937,1258.734009 600.042419,1258.572388 605.285522,1261.712646 
	C624.298401,1273.099487 643.423767,1284.299561 662.384827,1295.771484 
	C665.942871,1297.924438 668.596863,1298.098389 672.316956,1295.872192 
	C750.959290,1248.811768 829.674011,1201.872314 908.450256,1155.036499 
	C912.239136,1152.783813 913.657837,1150.297729 913.652466,1145.900269 
	C913.535950,1050.733765 913.531189,955.567017 913.663513,860.400513 
	C913.669922,855.779846 912.101868,853.230957 908.225525,850.864075 
	C829.435669,802.755554 750.712524,754.537659 672.046692,706.226440 
	C668.714844,704.180176 666.369446,704.201233 663.057678,706.236023 
	C584.117859,754.737793 505.119171,803.143738 426.072479,851.471130 
	C422.829681,853.453735 421.566559,855.647583 421.570435,859.466370 
	C421.666779,955.132935 421.666290,1050.799561 421.571350,1146.466064 
	C421.567566,1150.265625 422.731995,1152.522339 426.033691,1154.478394 
	C445.243622,1165.859253 464.270111,1177.549561 483.480133,1188.930298 
	C492.195007,1194.093140 501.577667,1197.439575 511.939728,1197.031738 
	C524.946289,1196.519897 534.489685,1187.053223 535.054565,1174.099854 
	C535.170654,1171.437622 535.127991,1168.767578 535.128052,1166.101196 
	C535.131287,1073.267822 535.128906,980.434509 535.141663,887.601196 
	C535.141968,885.105652 535.076660,882.577942 535.428894,880.120667 
	C536.439392,873.071594 541.537903,868.308716 548.670715,868.190430 
	C560.667236,867.991516 572.672058,867.985413 584.668274,868.192017 
	C592.176819,868.321289 597.441895,873.560852 598.143616,881.031128 
	C598.330139,883.016296 598.277527,885.027100 598.277649,887.026123 
	C598.283203,981.026062 598.257629,1075.026001 598.307434,1169.026001 
	C598.315491,1184.166992 596.773499,1199.019897 590.736328,1213.057617 
	C577.556885,1243.702881 552.943420,1257.177979 520.837341,1259.794312 
	C495.401855,1261.867065 472.825928,1253.531738 451.406219,1241.301514 
	C430.284027,1229.241211 409.460205,1216.644165 388.725159,1203.924316 
	C369.176697,1191.932251 358.821747,1174.126465 358.775879,1151.208618 
	C358.575348,1051.042358 358.587555,950.875366 358.767365,850.709045 
	C358.808167,827.979980 368.841949,809.994507 388.287537,798.271667 
	C471.342560,748.201843 554.562622,698.405273 637.796082,648.632141 
	C651.258789,640.581543 665.913879,638.691406 681.631653,642.250366 
z"/>
<path fill="#010101" opacity="1.000000" stroke="none" 
	d="
M787.504578,1038.390625 
	C763.210022,1034.838257 739.304993,1031.488037 715.433838,1027.911743 
	C697.252563,1025.187988 679.398926,1021.171753 662.770874,1012.931519 
	C638.441040,1000.874634 624.997559,981.324036 623.150146,954.226318 
	C620.037842,908.574951 642.435364,876.629211 686.690247,863.039246 
	C711.798584,855.328857 737.530396,854.682373 763.431091,856.477783 
	C782.638916,857.809387 801.463806,861.121094 819.180298,869.101685 
	C849.946472,882.960449 865.745056,907.219849 868.339539,940.462524 
	C869.156067,950.925415 863.489075,956.787903 852.976929,956.834106 
	C843.810608,956.874329 834.643921,956.867188 825.477478,956.834839 
	C817.018616,956.804932 812.478149,953.846130 810.364868,945.865967 
	C805.980774,929.310425 794.943237,920.076782 778.689758,916.996887 
	C755.890503,912.676636 732.961121,912.469543 710.122131,916.901306 
	C705.916504,917.717346 701.738953,919.217041 697.855042,921.050598 
	C686.650146,926.340393 681.921021,936.073364 684.219788,948.228149 
	C685.080322,952.778320 687.986816,955.924011 692.113525,957.170959 
	C702.757080,960.387329 713.414551,963.854370 724.317139,965.855042 
	C747.571472,970.122314 771.137512,972.781799 794.278198,977.545593 
	C809.354919,980.649414 824.379517,985.159363 838.594238,991.050110 
	C865.498108,1002.199280 878.434998,1023.769226 879.775818,1052.485962 
	C881.945923,1098.963989 859.028381,1133.059814 815.158752,1148.968384 
	C786.811584,1159.248047 757.495850,1160.532593 727.841614,1158.207397 
	C705.892517,1156.486450 684.589844,1151.937256 665.039856,1141.352661 
	C633.003052,1124.007568 617.143250,1096.663208 616.116089,1060.519653 
	C615.841614,1050.861328 621.481689,1045.363403 631.242615,1045.262573 
	C640.741394,1045.164429 650.242859,1045.160278 659.741516,1045.266724 
	C668.121826,1045.360840 673.038940,1049.603394 674.655884,1057.844238 
	C675.040405,1059.804321 675.360596,1061.776978 675.750732,1063.735840 
	C678.900879,1079.551514 688.214233,1089.935547 703.501099,1094.891968 
	C723.188965,1101.275391 743.522217,1101.863892 763.851318,1100.329224 
	C774.049377,1099.559204 784.409241,1097.732300 794.135559,1094.627563 
	C810.654907,1089.354248 818.036072,1077.870972 817.972168,1061.127197 
	C817.947388,1054.641235 815.487854,1049.447021 809.767578,1046.794434 
	C802.714966,1043.524170 795.215210,1041.218262 787.504578,1038.390625 
z"/>
</svg>