<svg version="1.1" id="Layer_1" xmlns="http://www.w3.org/2000/svg" xmlns:xlink="http://www.w3.org/1999/xlink" x="0px" y="0px"
	 width="100%" viewBox="0 0 1333 2000" enable-background="new 0 0 1333 2000" xml:space="preserve">
<path fill="#000000" opacity="1.000000" stroke="none" 
	d="
M767.000000,2001.000000 
	C511.333374,2001.000000 256.166718,2001.000000 1.000068,2001.000000 
	C1.000046,1334.333496 1.000046,667.666870 1.000023,1.000247 
	C445.333160,1.000165 889.666321,1.000165 1333.999634,1.000082 
	C1333.999756,667.666443 1333.999756,1334.332886 1333.999878,2000.999634 
	C1145.166626,2001.000000 956.333313,2001.000000 767.000000,2001.000000 
M342.484772,1531.947510 
	C343.725983,1533.874146 345.496552,1535.646240 346.112000,1537.755493 
	C348.190247,1544.877808 353.245728,1545.120850 359.510773,1545.116455 
	C562.990051,1544.975342 766.469421,1544.942261 969.948547,1545.178467 
	C979.695862,1545.189819 986.287415,1544.095947 991.156555,1533.880737 
	C998.951721,1517.527100 1009.023315,1502.257568 1018.151672,1486.540771 
	C1027.036499,1471.243286 1035.927368,1455.949341 1044.848145,1440.672729 
	C1054.758057,1423.702393 1064.765625,1406.788818 1074.619141,1389.785889 
	C1084.966675,1371.930664 1095.106445,1353.954956 1105.475098,1336.112183 
	C1117.650391,1315.160400 1130.040039,1294.333130 1142.215820,1273.381592 
	C1154.972046,1251.431519 1167.523926,1229.362793 1180.277100,1207.410889 
	C1193.849609,1184.048584 1207.603516,1160.791504 1221.186279,1137.435059 
	C1234.936646,1113.790405 1248.540894,1090.060669 1262.272339,1066.404907 
	C1274.030640,1046.148438 1285.721436,1025.849121 1297.817627,1005.795288 
	C1300.267090,1001.734314 1299.224609,999.061646 1297.222168,995.679321 
	C1288.127075,980.316589 1279.139526,964.889832 1270.157227,949.460571 
	C1261.013062,933.753052 1251.936890,918.006042 1242.800781,902.293884 
	C1233.003906,885.445618 1223.124878,868.645020 1213.368530,851.773438 
	C1203.037598,833.908325 1192.884521,815.940247 1182.515747,798.097351 
	C1170.340332,777.145508 1157.950562,756.318176 1145.774658,735.366638 
	C1133.018311,713.416443 1120.466675,691.347473 1107.713501,669.395386 
	C1094.140869,646.032837 1080.380005,622.779663 1066.807251,599.417175 
	C1054.053955,577.465332 1041.506592,555.393677 1028.744263,533.447021 
	C1014.994812,509.802612 1001.013123,486.292725 987.355713,462.595581 
	C985.057617,458.608032 982.654907,456.876160 977.804321,456.879425 
	C770.658752,457.019379 563.513062,456.999756 356.367432,456.999939 
	C355.200897,456.999939 353.951385,456.738678 352.889496,457.072754 
	C351.661438,457.459045 350.134552,458.093567 349.535919,459.096802 
	C343.579559,469.078918 337.794708,479.163330 331.948975,489.211609 
	C322.971344,504.643188 313.973938,520.063232 305.003326,535.498901 
	C294.965759,552.770386 284.952301,570.055847 274.921722,587.331421 
	C266.038544,602.630798 257.141724,617.922302 248.259354,633.222168 
	C239.134293,648.940063 230.038376,664.674866 220.894409,680.381775 
	C211.911896,695.811401 202.883347,711.214172 193.878036,726.630554 
	C183.964127,743.602234 174.034317,760.564697 164.147461,777.552124 
	C155.005035,793.260437 145.926010,809.005554 136.789948,824.717590 
	C126.993156,841.565918 117.115578,858.367432 107.359512,875.239319 
	C97.028999,893.104553 86.866776,911.067200 76.509567,928.916870 
	C63.852081,950.730774 51.395847,972.674011 38.134003,994.116943 
	C34.293232,1000.327148 35.952286,1004.454651 39.036579,1009.629639 
	C49.099014,1026.512695 58.940483,1043.527710 68.827126,1060.515137 
	C77.969574,1076.223877 87.073441,1091.955322 96.170921,1107.690186 
	C105.187012,1123.284546 114.149750,1138.910034 123.180481,1154.495850 
	C132.049271,1169.802246 140.956833,1185.086304 149.879211,1200.361572 
	C159.875031,1217.474365 169.929947,1234.552979 179.915726,1251.671631 
	C189.073181,1267.370483 198.190613,1283.092529 207.292953,1298.823364 
	C216.232971,1314.273682 225.106537,1329.762451 234.056015,1345.207397 
	C243.006653,1360.654541 252.008347,1376.072144 260.999908,1391.495483 
	C270.980591,1408.615845 280.990601,1425.719116 290.958984,1442.846558 
	C300.019867,1458.414795 309.062408,1473.993774 318.075165,1489.589966 
	C326.104431,1503.484375 334.081726,1517.409058 342.484772,1531.947510 
z"/>
<path fill="#808080" opacity="1.000000" stroke="none" 
	d="
M342.283386,1531.633911 
	C334.081726,1517.409058 326.104431,1503.484375 318.075165,1489.589966 
	C309.062408,1473.993774 300.019867,1458.414795 290.958984,1442.846558 
	C280.990601,1425.719116 270.980591,1408.615845 260.999908,1391.495483 
	C252.008347,1376.072144 243.006653,1360.654541 234.056015,1345.207397 
	C225.106537,1329.762451 216.232971,1314.273682 207.292953,1298.823364 
	C198.190613,1283.092529 189.073181,1267.370483 179.915726,1251.671631 
	C169.929947,1234.552979 159.875031,1217.474365 149.879211,1200.361572 
	C140.956833,1185.086304 132.049271,1169.802246 123.180481,1154.495850 
	C114.149750,1138.910034 105.187012,1123.284546 96.170921,1107.690186 
	C87.073441,1091.955322 77.969574,1076.223877 68.827126,1060.515137 
	C58.940483,1043.527710 49.099014,1026.512695 39.036579,1009.629639 
	C35.952286,1004.454651 34.293232,1000.327148 38.134003,994.116943 
	C51.395847,972.674011 63.852081,950.730774 76.509567,928.916870 
	C86.866776,911.067200 97.028999,893.104553 107.359512,875.239319 
	C117.115578,858.367432 126.993156,841.565918 136.789948,824.717590 
	C145.926010,809.005554 155.005035,793.260437 164.147461,777.552124 
	C174.034317,760.564697 183.964127,743.602234 193.878036,726.630554 
	C202.883347,711.214172 211.911896,695.811401 220.894409,680.381775 
	C230.038376,664.674866 239.134293,648.940063 248.259354,633.222168 
	C257.141724,617.922302 266.038544,602.630798 274.921722,587.331421 
	C284.952301,570.055847 294.965759,552.770386 305.003326,535.498901 
	C313.973938,520.063232 322.971344,504.643188 331.948975,489.211609 
	C337.794708,479.163330 343.579559,469.078918 349.535919,459.096802 
	C350.134552,458.093567 351.661438,457.459045 352.889496,457.072754 
	C353.951385,456.738678 355.200897,456.999939 356.367432,456.999939 
	C563.513062,456.999756 770.658752,457.019379 977.804321,456.879425 
	C982.654907,456.876160 985.057617,458.608032 987.355713,462.595581 
	C1001.013123,486.292725 1014.994812,509.802612 1028.744263,533.447021 
	C1041.506592,555.393677 1054.053955,577.465332 1066.807251,599.417175 
	C1080.380005,622.779663 1094.140869,646.032837 1107.713501,669.395386 
	C1120.466675,691.347473 1133.018311,713.416443 1145.774658,735.366638 
	C1157.950562,756.318176 1170.340332,777.145508 1182.515747,798.097351 
	C1192.884521,815.940247 1203.037598,833.908325 1213.368530,851.773438 
	C1223.124878,868.645020 1233.003906,885.445618 1242.800781,902.293884 
	C1251.936890,918.006042 1261.013062,933.753052 1270.157227,949.460571 
	C1279.139526,964.889832 1288.127075,980.316589 1297.222168,995.679321 
	C1299.224609,999.061646 1300.267090,1001.734314 1297.817627,1005.795288 
	C1285.721436,1025.849121 1274.030640,1046.148438 1262.272339,1066.404907 
	C1248.540894,1090.060669 1234.936646,1113.790405 1221.186279,1137.435059 
	C1207.603516,1160.791504 1193.849609,1184.048584 1180.277100,1207.410889 
	C1167.523926,1229.362793 1154.972046,1251.431519 1142.215820,1273.381592 
	C1130.040039,1294.333130 1117.650391,1315.160400 1105.475098,1336.112183 
	C1095.106445,1353.954956 1084.966675,1371.930664 1074.619141,1389.785889 
	C1064.765625,1406.788818 1054.758057,1423.702393 1044.848145,1440.672729 
	C1035.927368,1455.949341 1027.036499,1471.243286 1018.151672,1486.540771 
	C1009.023315,1502.257568 998.951721,1517.527100 991.156555,1533.880737 
	C986.287415,1544.095947 979.695862,1545.189819 969.948547,1545.178467 
	C766.469421,1544.942261 562.990051,1544.975342 359.510773,1545.116455 
	C353.245728,1545.120850 348.190247,1544.877808 346.112000,1537.755493 
	C345.496552,1535.646240 343.725983,1533.874146 342.283386,1531.633911 
M619.685852,1218.917480 
	C621.717041,1247.330444 623.562073,1275.758545 625.864563,1304.149414 
	C626.885986,1316.744263 623.819458,1326.798584 610.825256,1332.645386 
	C648.033630,1332.645386 684.310242,1332.645386 721.622314,1332.645386 
	C711.337708,1327.910400 708.311279,1320.419189 709.042358,1310.593140 
	C711.872681,1272.548218 714.505920,1234.488403 717.245728,1196.436646 
	C721.433289,1138.278687 725.672974,1080.124390 729.835632,1021.964478 
	C730.983032,1005.931885 738.260437,999.725769 754.262390,1001.422241 
	C765.382202,1002.601196 772.406738,1010.710938 771.632996,1021.824890 
	C769.052917,1058.886230 766.401978,1095.942749 763.737183,1132.998169 
	C759.554749,1191.157104 755.142517,1249.300903 751.308289,1307.482666 
	C750.569580,1318.691772 748.539246,1328.107300 736.668579,1332.652466 
	C770.090454,1333.003784 803.077148,1333.085327 836.061768,1332.863159 
	C838.994324,1332.843384 842.245728,1331.348267 844.774719,1329.671997 
	C851.499084,1325.214966 854.092712,1318.356445 855.036621,1310.553589 
	C858.416504,1282.614380 861.951721,1254.693970 865.440796,1226.768066 
	C870.292419,1187.936279 875.164368,1149.107178 880.010864,1110.274780 
	C884.465576,1074.581909 888.923523,1038.889404 893.297852,1003.186646 
	C893.703369,999.876709 894.956604,998.115784 898.321472,996.897522 
	C921.922729,988.353088 937.045593,965.959045 937.397400,939.553467 
	C937.741821,913.709778 923.017151,890.556152 900.050903,881.415039 
	C896.796936,880.119873 895.996887,878.610291 895.907227,875.311829 
	C895.241028,850.780762 886.017883,830.042236 867.676392,813.579041 
	C863.511475,809.840576 857.352722,807.298950 855.106812,802.733093 
	C852.828003,798.100464 854.401062,791.635559 854.034851,785.989502 
	C851.557251,747.790588 817.966187,713.994751 779.813354,710.932007 
	C766.968445,709.900940 754.600525,711.292053 742.516235,716.494019 
	C726.142090,686.712097 701.989380,669.065735 667.452759,669.139771 
	C632.981812,669.213806 608.921753,687.023071 592.849976,716.388245 
	C559.349487,702.601929 522.877869,714.953003 502.449371,737.884460 
	C486.906860,755.331238 480.089874,775.773376 480.897339,798.902588 
	C481.021606,802.462036 479.906067,804.531006 476.916565,806.607239 
	C471.885315,810.101562 466.975739,813.969971 462.743713,818.380310 
	C447.696259,834.061707 440.019531,852.939270 439.449799,874.694702 
	C439.378021,877.436401 439.499634,879.774780 435.818542,881.254700 
	C411.799927,890.911316 397.532471,913.512512 397.946899,940.468384 
	C398.346130,966.435486 413.465179,987.885864 437.774628,997.403625 
	C439.492584,998.076233 441.453186,1000.367615 441.719910,1002.143616 
	C443.401123,1013.337891 444.620331,1024.601074 446.019623,1035.838013 
	C450.484985,1071.696899 454.957397,1107.554810 459.436646,1143.411987 
	C463.957092,1179.598755 468.482208,1215.784912 473.018494,1251.969727 
	C475.607605,1272.622681 478.025085,1293.300049 480.901520,1313.913086 
	C482.605835,1326.126587 491.023102,1333.022461 503.146484,1333.027954 
	C533.310730,1333.041748 563.475037,1333.036865 593.639282,1333.022461 
	C595.143799,1333.021729 596.648193,1332.859375 599.250000,1332.708740 
	C589.643372,1328.640869 584.839172,1322.626831 584.476501,1313.141724 
	C584.133057,1304.156372 583.299255,1295.189331 582.653015,1286.216309 
	C579.792725,1246.502686 576.911621,1206.790527 574.058899,1167.076416 
	C571.480713,1131.184326 568.911743,1095.291382 566.376587,1059.396240 
	C565.519897,1047.266357 564.321228,1035.136108 564.109680,1022.991699 
	C563.880127,1009.815857 575.200195,1000.109314 587.610535,1001.967468 
	C597.309021,1003.419495 604.852722,1011.949768 605.671265,1023.070862 
	C608.214722,1057.628906 610.563416,1092.201294 613.022705,1126.765625 
	C615.186340,1157.175659 617.397095,1187.582397 619.685852,1218.917480 
z"/>
<path fill="#000000" opacity="1.000000" stroke="none" 
	d="
M619.636414,1218.454102 
	C617.397095,1187.582397 615.186340,1157.175659 613.022705,1126.765625 
	C610.563416,1092.201294 608.214722,1057.628906 605.671265,1023.070862 
	C604.852722,1011.949768 597.309021,1003.419495 587.610535,1001.967468 
	C575.200195,1000.109314 563.880127,1009.815857 564.109680,1022.991699 
	C564.321228,1035.136108 565.519897,1047.266357 566.376587,1059.396240 
	C568.911743,1095.291382 571.480713,1131.184326 574.058899,1167.076416 
	C576.911621,1206.790527 579.792725,1246.502686 582.653015,1286.216309 
	C583.299255,1295.189331 584.133057,1304.156372 584.476501,1313.141724 
	C584.839172,1322.626831 589.643372,1328.640869 599.250000,1332.708740 
	C596.648193,1332.859375 595.143799,1333.021729 593.639282,1333.022461 
	C563.475037,1333.036865 533.310730,1333.041748 503.146484,1333.027954 
	C491.023102,1333.022461 482.605835,1326.126587 480.901520,1313.913086 
	C478.025085,1293.300049 475.607605,1272.622681 473.018494,1251.969727 
	C468.482208,1215.784912 463.957092,1179.598755 459.436646,1143.411987 
	C454.957397,1107.554810 450.484985,1071.696899 446.019623,1035.838013 
	C444.620331,1024.601074 443.401123,1013.337891 441.719910,1002.143616 
	C441.453186,1000.367615 439.492584,998.076233 437.774628,997.403625 
	C413.465179,987.885864 398.346130,966.435486 397.946899,940.468384 
	C397.532471,913.512512 411.799927,890.911316 435.818542,881.254700 
	C439.499634,879.774780 439.378021,877.436401 439.449799,874.694702 
	C440.019531,852.939270 447.696259,834.061707 462.743713,818.380310 
	C466.975739,813.969971 471.885315,810.101562 476.916565,806.607239 
	C479.906067,804.531006 481.021606,802.462036 480.897339,798.902588 
	C480.089874,775.773376 486.906860,755.331238 502.449371,737.884460 
	C522.877869,714.953003 559.349487,702.601929 592.849976,716.388245 
	C608.921753,687.023071 632.981812,669.213806 667.452759,669.139771 
	C701.989380,669.065735 726.142090,686.712097 742.516235,716.494019 
	C754.600525,711.292053 766.968445,709.900940 779.813354,710.932007 
	C817.966187,713.994751 851.557251,747.790588 854.034851,785.989502 
	C854.401062,791.635559 852.828003,798.100464 855.106812,802.733093 
	C857.352722,807.298950 863.511475,809.840576 867.676392,813.579041 
	C886.017883,830.042236 895.241028,850.780762 895.907227,875.311829 
	C895.996887,878.610291 896.796936,880.119873 900.050903,881.415039 
	C923.017151,890.556152 937.741821,913.709778 937.397400,939.553467 
	C937.045593,965.959045 921.922729,988.353088 898.321472,996.897522 
	C894.956604,998.115784 893.703369,999.876709 893.297852,1003.186646 
	C888.923523,1038.889404 884.465576,1074.581909 880.010864,1110.274780 
	C875.164368,1149.107178 870.292419,1187.936279 865.440796,1226.768066 
	C861.951721,1254.693970 858.416504,1282.614380 855.036621,1310.553589 
	C854.092712,1318.356445 851.499084,1325.214966 844.774719,1329.671997 
	C842.245728,1331.348267 838.994324,1332.843384 836.061768,1332.863159 
	C803.077148,1333.085327 770.090454,1333.003784 736.668579,1332.652466 
	C748.539246,1328.107300 750.569580,1318.691772 751.308289,1307.482666 
	C755.142517,1249.300903 759.554749,1191.157104 763.737183,1132.998169 
	C766.401978,1095.942749 769.052917,1058.886230 771.632996,1021.824890 
	C772.406738,1010.710938 765.382202,1002.601196 754.262390,1001.422241 
	C738.260437,999.725769 730.983032,1005.931885 729.835632,1021.964478 
	C725.672974,1080.124390 721.433289,1138.278687 717.245728,1196.436646 
	C714.505920,1234.488403 711.872681,1272.548218 709.042358,1310.593140 
	C708.311279,1320.419189 711.337708,1327.910400 721.622314,1332.645386 
	C684.310242,1332.645386 648.033630,1332.645386 610.825256,1332.645386 
	C623.819458,1326.798584 626.885986,1316.744263 625.864563,1304.149414 
	C623.562073,1275.758545 621.717041,1247.330444 619.636414,1218.454102 
M637.499939,876.166260 
	C709.607178,876.166260 781.714355,876.166260 854.030823,876.166260 
	C854.096069,874.795349 854.191284,873.999756 854.163147,873.208557 
	C853.586731,857.005920 842.051208,842.871643 825.185852,837.683716 
	C811.848999,833.581177 806.693848,823.912720 810.660461,810.667542 
	C811.516663,807.808350 812.159058,804.855225 812.577087,801.899658 
	C815.227844,783.157593 807.150024,766.072021 791.588928,757.327942 
	C775.250366,748.147034 755.704651,751.612122 743.784668,762.861938 
	C737.159912,769.114258 729.256104,769.005920 721.386841,765.683655 
	C714.112732,762.612732 709.882080,757.048218 708.992432,748.937988 
	C706.129761,722.842651 681.379333,705.295654 657.072144,711.995605 
	C640.195312,716.647461 627.970947,731.643250 626.108032,750.374573 
	C625.243103,759.071289 620.506104,765.432495 613.041504,768.472961 
	C605.550598,771.524231 598.310547,770.263733 591.720581,763.637695 
	C573.670227,745.488342 543.187439,749.214661 529.305786,770.766235 
	C521.605957,782.720337 520.644653,795.559082 524.718933,809.074585 
	C528.894226,822.925171 522.857727,833.400208 509.464508,838.066772 
	C503.799255,840.040588 498.137177,843.162964 493.636536,847.094543 
	C485.186005,854.476685 481.126282,864.287842 481.076050,876.166260 
	C533.251953,876.166260 584.875916,876.166260 637.499939,876.166260 
z"/>
<path fill="#808080" opacity="1.000000" stroke="none" 
	d="
M636.999878,876.166260 
	C584.875916,876.166260 533.251953,876.166260 481.076050,876.166260 
	C481.126282,864.287842 485.186005,854.476685 493.636536,847.094543 
	C498.137177,843.162964 503.799255,840.040588 509.464508,838.066772 
	C522.857727,833.400208 528.894226,822.925171 524.718933,809.074585 
	C520.644653,795.559082 521.605957,782.720337 529.305786,770.766235 
	C543.187439,749.214661 573.670227,745.488342 591.720581,763.637695 
	C598.310547,770.263733 605.550598,771.524231 613.041504,768.472961 
	C620.506104,765.432495 625.243103,759.071289 626.108032,750.374573 
	C627.970947,731.643250 640.195312,716.647461 657.072144,711.995605 
	C681.379333,705.295654 706.129761,722.842651 708.992432,748.937988 
	C709.882080,757.048218 714.112732,762.612732 721.386841,765.683655 
	C729.256104,769.005920 737.159912,769.114258 743.784668,762.861938 
	C755.704651,751.612122 775.250366,748.147034 791.588928,757.327942 
	C807.150024,766.072021 815.227844,783.157593 812.577087,801.899658 
	C812.159058,804.855225 811.516663,807.808350 810.660461,810.667542 
	C806.693848,823.912720 811.848999,833.581177 825.185852,837.683716 
	C842.051208,842.871643 853.586731,857.005920 854.163147,873.208557 
	C854.191284,873.999756 854.096069,874.795349 854.030823,876.166260 
	C781.714355,876.166260 709.607178,876.166260 636.999878,876.166260 
z"/>
</svg>