<svg xmlns="http://www.w3.org/2000/svg" xmlns:xlink="http://www.w3.org/1999/xlink" width="400" zoomAndPan="magnify" viewBox="0 0 300 299.999988" height="400" preserveAspectRatio="xMidYMid meet" version="1.0"><path fill="#000000" d="M 150 129.375 C 161.390625 129.375 170.625 138.609375 170.625 150 C 170.625 161.390625 161.390625 170.625 150 170.625 C 138.609375 170.625 129.375 161.390625 129.375 150 C 129.375 138.609375 138.609375 129.375 150 129.375 Z M 150 129.375 " fill-opacity="1" fill-rule="nonzero"/><path fill="#000000" d="M 150 25 C 80.964844 25 25 80.964844 25 150 C 25 219.035156 80.964844 275 150 275 C 219.035156 275 275 219.035156 275 150 C 275 80.964844 219.035156 25 150 25 Z M 84.375 150 C 84.375 113.757812 113.757812 84.375 150 84.375 C 186.242188 84.375 215.625 113.757812 215.625 150 C 215.625 157.910156 214.230469 165.46875 211.679688 172.464844 C 211.238281 173.679688 210.367188 174.984375 208.980469 176.269531 L 207.972656 177.199219 C 204.210938 180.667969 198.566406 181.109375 194.308594 178.273438 C 191.226562 176.21875 189.375 172.757812 189.375 169.050781 L 189.375 150 C 189.375 128.253906 171.746094 110.625 150 110.625 C 128.253906 110.625 110.625 128.253906 110.625 150 C 110.625 171.746094 128.253906 189.375 150 189.375 C 158.769531 189.375 166.875 186.507812 173.417969 181.65625 C 175.695312 186.542969 179.289062 190.792969 183.910156 193.875 C 195.367188 201.511719 210.5625 200.316406 220.683594 190.980469 L 221.691406 190.050781 C 224.820312 187.164062 227.636719 183.445312 229.296875 178.886719 C 232.585938 169.859375 234.375 160.128906 234.375 150 C 234.375 103.402344 196.597656 65.625 150 65.625 C 103.402344 65.625 65.625 103.402344 65.625 150 C 65.625 196.597656 103.402344 234.375 150 234.375 C 155.175781 234.375 159.375 230.175781 159.375 225 C 159.375 219.824219 155.175781 215.625 150 215.625 C 113.757812 215.625 84.375 186.242188 84.375 150 Z M 84.375 150 " fill-opacity="1" fill-rule="evenodd"/></svg>