<svg version="1.1" id="Layer_1" xmlns="http://www.w3.org/2000/svg" xmlns:xlink="http://www.w3.org/1999/xlink" x="0px" y="0px"
	 width="100%" viewBox="0 0 1333 2000" enable-background="new 0 0 1333 2000" xml:space="preserve">
<path fill="#000000" opacity="1.000000" stroke="none" 
	d="
M764.000000,2001.000000 
	C509.333374,2001.000000 255.166733,2001.000000 1.000068,2001.000000 
	C1.000046,1334.333496 1.000046,667.666870 1.000023,1.000247 
	C445.333160,1.000165 889.666321,1.000165 1333.999634,1.000082 
	C1333.999756,667.666443 1333.999756,1334.332886 1333.999878,2000.999634 
	C1144.166626,2001.000000 954.333313,2001.000000 764.000000,2001.000000 
M500.500000,1545.000000 
	C659.494812,1545.000000 818.489563,1545.000000 977.484375,1545.000000 
	C978.817688,1545.000000 980.240906,1545.294922 981.461365,1544.923706 
	C982.981934,1544.461304 984.945862,1543.815918 985.665894,1542.617432 
	C992.580078,1531.108398 999.302429,1519.483521 1006.022156,1507.858521 
	C1024.711060,1475.527222 1043.303955,1443.140259 1062.065308,1410.851074 
	C1077.945557,1383.520508 1094.085571,1356.340820 1109.968140,1329.011719 
	C1127.414429,1298.991821 1144.627075,1268.836182 1162.073486,1238.816284 
	C1177.956177,1211.487183 1194.093750,1184.306152 1209.974854,1156.975952 
	C1225.115112,1130.920410 1240.013550,1104.724365 1255.121460,1078.649780 
	C1269.328735,1054.129517 1283.557373,1029.619385 1298.084717,1005.288513 
	C1300.083008,1001.941895 1299.607300,999.683533 1297.971191,996.863953 
	C1288.272095,980.148560 1278.652832,963.386536 1268.908447,946.697632 
	C1252.970459,919.400574 1236.883545,892.190308 1220.996948,864.863525 
	C1205.850586,838.809814 1190.947144,812.614868 1175.813232,786.553894 
	C1160.677734,760.490295 1145.346191,734.540649 1130.182373,708.493469 
	C1120.296143,691.511475 1110.611450,674.412292 1100.735107,657.424438 
	C1089.458740,638.028503 1078.009155,618.733215 1066.746216,599.329590 
	C1054.000488,577.371521 1041.443970,555.303406 1028.684448,533.353455 
	C1015.021606,509.849304 1001.099487,486.494904 987.581848,462.908173 
	C985.058228,458.504791 982.359253,456.869080 977.187256,456.872803 
	C770.361511,457.021942 563.535645,456.999908 356.709808,456.999939 
	C355.709839,456.999939 354.594818,456.715302 353.734680,457.062256 
	C352.116974,457.714813 349.996948,458.344666 349.214050,459.657043 
	C340.320709,474.564880 331.649597,489.605194 322.902039,504.600189 
	C312.997498,521.578491 303.055084,538.534607 293.167511,555.522766 
	C284.024170,571.232239 274.941315,586.976868 265.813721,602.695557 
	C256.929504,617.995178 248.013565,633.276367 239.127762,648.575073 
	C229.998917,664.292297 220.904282,680.029419 211.767822,695.742249 
	C201.970352,712.591980 192.095703,729.396912 182.339233,746.270264 
	C172.008484,764.136719 161.852493,782.104431 151.482880,799.948120 
	C139.306366,820.901123 126.916222,841.730042 114.739830,862.683105 
	C101.983093,884.634827 89.426872,906.703125 76.678261,928.659546 
	C63.930119,950.615234 51.321655,972.660645 38.055233,994.300964 
	C34.426254,1000.220581 35.783283,1004.314087 38.821449,1009.414429 
	C49.045322,1026.578003 58.990925,1043.907471 69.039909,1061.175293 
	C78.020126,1076.606323 87.008423,1092.032837 95.970688,1107.474365 
	C105.013206,1123.054199 114.012192,1138.659180 123.059677,1154.235962 
	C132.027115,1169.675049 141.021652,1185.098145 150.021942,1200.518066 
	C159.930115,1217.493286 169.895523,1234.435059 179.767014,1251.431641 
	C188.814743,1267.009644 197.731796,1282.663574 206.778030,1298.242554 
	C215.743362,1313.682129 224.823898,1329.054810 233.806656,1344.484375 
	C242.951920,1360.192993 252.040604,1375.934692 261.151978,1391.663208 
	C271.166626,1408.950928 281.164795,1426.248291 291.196289,1443.526245 
	C300.078949,1458.825684 308.984619,1474.111572 317.903778,1489.389648 
	C327.896271,1506.506470 338.079834,1523.515503 347.779755,1540.796143 
	C349.648621,1544.125488 351.474945,1545.072266 355.005341,1545.065186 
	C403.170074,1544.968384 451.335083,1545.000000 500.500000,1545.000000 
z"/>
<path fill="#808080" opacity="1.000000" stroke="none" 
	d="
M500.000000,1545.000000 
	C451.335083,1545.000000 403.170074,1544.968384 355.005341,1545.065186 
	C351.474945,1545.072266 349.648621,1544.125488 347.779755,1540.796143 
	C338.079834,1523.515503 327.896271,1506.506470 317.903778,1489.389648 
	C308.984619,1474.111572 300.078949,1458.825684 291.196289,1443.526245 
	C281.164795,1426.248291 271.166626,1408.950928 261.151978,1391.663208 
	C252.040604,1375.934692 242.951920,1360.192993 233.806656,1344.484375 
	C224.823898,1329.054810 215.743362,1313.682129 206.778030,1298.242554 
	C197.731796,1282.663574 188.814743,1267.009644 179.767014,1251.431641 
	C169.895523,1234.435059 159.930115,1217.493286 150.021942,1200.518066 
	C141.021652,1185.098145 132.027115,1169.675049 123.059677,1154.235962 
	C114.012192,1138.659180 105.013206,1123.054199 95.970688,1107.474365 
	C87.008423,1092.032837 78.020126,1076.606323 69.039909,1061.175293 
	C58.990925,1043.907471 49.045322,1026.578003 38.821449,1009.414429 
	C35.783283,1004.314087 34.426254,1000.220581 38.055233,994.300964 
	C51.321655,972.660645 63.930119,950.615234 76.678261,928.659546 
	C89.426872,906.703125 101.983093,884.634827 114.739830,862.683105 
	C126.916222,841.730042 139.306366,820.901123 151.482880,799.948120 
	C161.852493,782.104431 172.008484,764.136719 182.339233,746.270264 
	C192.095703,729.396912 201.970352,712.591980 211.767822,695.742249 
	C220.904282,680.029419 229.998917,664.292297 239.127762,648.575073 
	C248.013565,633.276367 256.929504,617.995178 265.813721,602.695557 
	C274.941315,586.976868 284.024170,571.232239 293.167511,555.522766 
	C303.055084,538.534607 312.997498,521.578491 322.902039,504.600189 
	C331.649597,489.605194 340.320709,474.564880 349.214050,459.657043 
	C349.996948,458.344666 352.116974,457.714813 353.734680,457.062256 
	C354.594818,456.715302 355.709839,456.999939 356.709808,456.999939 
	C563.535645,456.999908 770.361511,457.021942 977.187256,456.872803 
	C982.359253,456.869080 985.058228,458.504791 987.581848,462.908173 
	C1001.099487,486.494904 1015.021606,509.849304 1028.684448,533.353455 
	C1041.443970,555.303406 1054.000488,577.371521 1066.746216,599.329590 
	C1078.009155,618.733215 1089.458740,638.028503 1100.735107,657.424438 
	C1110.611450,674.412292 1120.296143,691.511475 1130.182373,708.493469 
	C1145.346191,734.540649 1160.677734,760.490295 1175.813232,786.553894 
	C1190.947144,812.614868 1205.850586,838.809814 1220.996948,864.863525 
	C1236.883545,892.190308 1252.970459,919.400574 1268.908447,946.697632 
	C1278.652832,963.386536 1288.272095,980.148560 1297.971191,996.863953 
	C1299.607300,999.683533 1300.083008,1001.941895 1298.084717,1005.288513 
	C1283.557373,1029.619385 1269.328735,1054.129517 1255.121460,1078.649780 
	C1240.013550,1104.724365 1225.115112,1130.920410 1209.974854,1156.975952 
	C1194.093750,1184.306152 1177.956177,1211.487183 1162.073486,1238.816284 
	C1144.627075,1268.836182 1127.414429,1298.991821 1109.968140,1329.011719 
	C1094.085571,1356.340820 1077.945557,1383.520508 1062.065308,1410.851074 
	C1043.303955,1443.140259 1024.711060,1475.527222 1006.022156,1507.858521 
	C999.302429,1519.483521 992.580078,1531.108398 985.665894,1542.617432 
	C984.945862,1543.815918 982.981934,1544.461304 981.461365,1544.923706 
	C980.240906,1545.294922 978.817688,1545.000000 977.484375,1545.000000 
	C818.489563,1545.000000 659.494812,1545.000000 500.000000,1545.000000 
M411.214172,893.781006 
	C398.894470,923.886353 391.577484,955.126770 390.054108,987.658142 
	C388.960602,1011.010193 390.576202,1034.181396 395.457428,1057.059204 
	C407.811676,1114.962646 435.019836,1164.770752 478.930756,1204.554321 
	C548.331055,1267.431396 629.790100,1290.155884 721.754761,1273.218994 
	C773.609619,1263.668945 818.803650,1239.895630 857.139709,1203.641479 
	C909.016907,1154.581543 937.926941,1094.325073 944.203735,1023.154907 
	C946.319092,999.170715 944.960022,975.345886 940.720764,951.780273 
	C930.392517,894.367188 904.474182,844.802185 862.964722,803.865112 
	C813.767761,755.346313 754.379822,728.538086 685.339294,724.074890 
	C671.176025,723.159180 656.792786,723.897034 642.631226,725.189941 
	C628.150269,726.511902 613.467957,728.149902 599.476196,731.898010 
	C511.194122,755.547241 448.779327,809.737061 411.214172,893.781006 
z"/>
<path fill="#000000" opacity="1.000000" stroke="none" 
	d="
M411.377472,893.435669 
	C448.779327,809.737061 511.194122,755.547241 599.476196,731.898010 
	C613.467957,728.149902 628.150269,726.511902 642.631226,725.189941 
	C656.792786,723.897034 671.176025,723.159180 685.339294,724.074890 
	C754.379822,728.538086 813.767761,755.346313 862.964722,803.865112 
	C904.474182,844.802185 930.392517,894.367188 940.720764,951.780273 
	C944.960022,975.345886 946.319092,999.170715 944.203735,1023.154907 
	C937.926941,1094.325073 909.016907,1154.581543 857.139709,1203.641479 
	C818.803650,1239.895630 773.609619,1263.668945 721.754761,1273.218994 
	C629.790100,1290.155884 548.331055,1267.431396 478.930756,1204.554321 
	C435.019836,1164.770752 407.811676,1114.962646 395.457428,1057.059204 
	C390.576202,1034.181396 388.960602,1011.010193 390.054108,987.658142 
	C391.577484,955.126770 398.894470,923.886353 411.377472,893.435669 
M762.333618,1107.268677 
	C771.348389,1109.810303 780.331909,1110.824341 789.741150,1108.915527 
	C814.571533,1103.878662 832.652466,1090.146851 842.764160,1067.061035 
	C851.958130,1046.070679 854.385254,1023.495544 854.865051,1000.803894 
	C855.042603,992.407532 854.196716,983.917603 853.044495,975.577087 
	C846.652771,929.311401 825.710999,890.728516 790.744385,859.871887 
	C760.602783,833.273010 725.230347,818.101501 685.312744,814.477844 
	C663.370850,812.486084 641.410828,813.747437 619.878296,819.584778 
	C525.028625,845.297485 466.566772,936.367615 482.901520,1033.186890 
	C495.236816,1106.300903 551.254089,1166.172241 623.603394,1183.118408 
	C635.018250,1185.792114 646.720947,1187.385498 658.370667,1188.833618 
	C663.007996,1189.410156 667.995667,1188.807983 672.591797,1187.741943 
	C682.930237,1185.344116 689.089905,1175.975098 688.083435,1165.191895 
	C687.148254,1155.172241 678.766724,1147.677490 668.219604,1146.846924 
	C657.780945,1146.025024 647.154541,1145.742432 636.997437,1143.483398 
	C559.394287,1126.223022 510.670105,1053.777588 524.013977,975.615112 
	C535.842957,906.325745 599.248047,846.737000 685.266357,856.418213 
	C756.374390,864.421265 809.714600,923.461487 813.037781,993.984192 
	C813.894104,1012.156189 811.380127,1029.827637 805.908997,1047.163818 
	C803.684143,1054.213501 799.426819,1059.537720 793.458923,1063.510742 
	C785.482971,1068.820435 776.971924,1069.574219 768.369385,1065.103760 
	C759.808960,1060.655029 755.302795,1053.386230 755.053040,1043.768311 
	C754.823792,1034.940918 755.157654,1026.099609 754.961304,1017.270691 
	C754.732788,1006.998718 755.342468,996.535034 753.601624,986.499146 
	C745.004883,936.939209 699.224548,905.179382 648.309753,915.741577 
	C603.808350,924.973267 571.797607,970.290405 581.864868,1019.067078 
	C591.779358,1067.103760 642.741821,1100.011230 690.952209,1085.039673 
	C700.842712,1081.968262 710.141235,1076.990479 720.059143,1072.743042 
	C728.699890,1089.394775 742.394775,1101.519043 762.333618,1107.268677 
z"/>
<path fill="#7F7F7F" opacity="1.000000" stroke="none" 
	d="
M761.943970,1107.164551 
	C742.394775,1101.519043 728.699890,1089.394775 720.059143,1072.743042 
	C710.141235,1076.990479 700.842712,1081.968262 690.952209,1085.039673 
	C642.741821,1100.011230 591.779358,1067.103760 581.864868,1019.067078 
	C571.797607,970.290405 603.808350,924.973267 648.309753,915.741577 
	C699.224548,905.179382 745.004883,936.939209 753.601624,986.499146 
	C755.342468,996.535034 754.732788,1006.998718 754.961304,1017.270691 
	C755.157654,1026.099609 754.823792,1034.940918 755.053040,1043.768311 
	C755.302795,1053.386230 759.808960,1060.655029 768.369385,1065.103760 
	C776.971924,1069.574219 785.482971,1068.820435 793.458923,1063.510742 
	C799.426819,1059.537720 803.684143,1054.213501 805.908997,1047.163818 
	C811.380127,1029.827637 813.894104,1012.156189 813.037781,993.984192 
	C809.714600,923.461487 756.374390,864.421265 685.266357,856.418213 
	C599.248047,846.737000 535.842957,906.325745 524.013977,975.615112 
	C510.670105,1053.777588 559.394287,1126.223022 636.997437,1143.483398 
	C647.154541,1145.742432 657.780945,1146.025024 668.219604,1146.846924 
	C678.766724,1147.677490 687.148254,1155.172241 688.083435,1165.191895 
	C689.089905,1175.975098 682.930237,1185.344116 672.591797,1187.741943 
	C667.995667,1188.807983 663.007996,1189.410156 658.370667,1188.833618 
	C646.720947,1187.385498 635.018250,1185.792114 623.603394,1183.118408 
	C551.254089,1166.172241 495.236816,1106.300903 482.901520,1033.186890 
	C466.566772,936.367615 525.028625,845.297485 619.878296,819.584778 
	C641.410828,813.747437 663.370850,812.486084 685.312744,814.477844 
	C725.230347,818.101501 760.602783,833.273010 790.744385,859.871887 
	C825.710999,890.728516 846.652771,929.311401 853.044495,975.577087 
	C854.196716,983.917603 855.042603,992.407532 854.865051,1000.803894 
	C854.385254,1023.495544 851.958130,1046.070679 842.764160,1067.061035 
	C832.652466,1090.146851 814.571533,1103.878662 789.741150,1108.915527 
	C780.331909,1110.824341 771.348389,1109.810303 761.943970,1107.164551 
M644.812256,961.236816 
	C627.843933,971.668457 618.861511,989.697693 622.323181,1008.235535 
	C626.301514,1029.540161 639.661133,1042.054199 660.696106,1046.414307 
	C674.362122,1049.247070 693.679199,1042.861084 704.433899,1028.158569 
	C716.825806,1011.217957 715.713196,987.737061 702.633606,971.606140 
	C688.806641,954.553467 662.726929,951.486938 644.812256,961.236816 
z"/>
<path fill="#010101" opacity="1.000000" stroke="none" 
	d="
M645.138184,961.065430 
	C662.726929,951.486938 688.806641,954.553467 702.633606,971.606140 
	C715.713196,987.737061 716.825806,1011.217957 704.433899,1028.158569 
	C693.679199,1042.861084 674.362122,1049.247070 660.696106,1046.414307 
	C639.661133,1042.054199 626.301514,1029.540161 622.323181,1008.235535 
	C618.861511,989.697693 627.843933,971.668457 645.138184,961.065430 
z"/>
</svg>