<svg version="1.1" id="Layer_1" xmlns="http://www.w3.org/2000/svg" xmlns:xlink="http://www.w3.org/1999/xlink" x="0px" y="0px"
	 width="100%" viewBox="0 0 1333 2000" enable-background="new 0 0 1333 2000" xml:space="preserve">
<path fill="#000000" opacity="1.000000" stroke="none" 
	d="
M764.000000,2001.000000 
	C509.333374,2001.000000 255.166733,2001.000000 1.000068,2001.000000 
	C1.000046,1334.333496 1.000046,667.666870 1.000023,1.000247 
	C445.333160,1.000165 889.666321,1.000165 1333.999634,1.000082 
	C1333.999756,667.666443 1333.999756,1334.332886 1333.999878,2000.999634 
	C1144.166626,2001.000000 954.333313,2001.000000 764.000000,2001.000000 
M897.500000,1545.000000 
	C925.165405,1545.000000 952.830933,1544.968872 980.496155,1545.048828 
	C983.218384,1545.056763 984.741211,1544.417603 986.208618,1541.792114 
	C992.599976,1530.357300 999.454102,1519.182739 1006.018127,1507.842896 
	C1024.726440,1475.522827 1043.306885,1443.128662 1062.067993,1410.839478 
	C1077.948120,1383.508789 1094.088135,1356.329224 1109.970825,1329.000000 
	C1127.417358,1298.980225 1144.630127,1268.824585 1162.076538,1238.804688 
	C1177.959229,1211.475464 1194.096191,1184.294067 1209.977661,1156.964233 
	C1225.118652,1130.908813 1240.019775,1104.714111 1255.127808,1078.639526 
	C1269.334961,1054.119141 1283.560791,1029.607422 1298.088623,1005.277100 
	C1300.090332,1001.924683 1299.595337,999.663025 1297.966064,996.853394 
	C1288.271362,980.135376 1278.649902,963.374634 1268.905640,946.685669 
	C1252.967651,919.388611 1236.881104,892.178162 1220.993896,864.851685 
	C1205.846924,838.798157 1190.941162,812.604370 1175.806641,786.543579 
	C1160.670532,760.480408 1145.339600,734.530396 1130.175781,708.483215 
	C1120.289429,691.501282 1110.604614,674.402039 1100.728394,657.414307 
	C1089.452026,638.018372 1078.002319,618.723145 1066.739380,599.319519 
	C1053.993530,577.361450 1041.437134,555.293335 1028.677734,533.343201 
	C1015.014771,509.839020 1001.124268,486.466644 987.551819,462.910767 
	C985.191833,458.814789 982.826721,456.855927 977.674744,456.860016 
	C770.682190,457.024048 563.689575,456.999847 356.696899,456.999939 
	C355.530273,456.999939 354.273804,456.726166 353.219360,457.070465 
	C351.847260,457.518433 350.103607,458.136078 349.438385,459.236115 
	C343.762909,468.621552 338.267456,478.116577 332.771698,487.609833 
	C319.066864,511.283234 305.432373,534.997498 291.689880,558.648987 
	C279.018524,580.456970 266.196350,602.177185 253.527969,623.986877 
	C242.175079,643.531860 231.005096,663.183167 219.638245,682.719910 
	C205.966187,706.218872 192.158066,729.638611 178.434235,753.107544 
	C169.092636,769.082520 159.766724,785.066833 150.484558,801.076416 
	C140.461487,818.363892 130.530914,835.705139 120.497681,852.986694 
	C111.617424,868.282471 102.622261,883.511475 93.731438,898.801147 
	C83.770439,915.931152 73.886093,933.105774 63.937901,950.243286 
	C54.973785,965.685547 46.066124,981.162354 36.899151,996.483704 
	C35.061657,999.554810 34.705128,1001.982727 36.508209,1005.092651 
	C49.158867,1026.912476 61.640469,1048.830200 74.311447,1070.638062 
	C87.969612,1094.145142 101.785507,1117.560425 115.513138,1141.027222 
	C124.941345,1157.144165 134.367447,1173.262695 143.738174,1189.413208 
	C153.766739,1206.697388 163.702286,1224.035522 173.728714,1241.320923 
	C182.519882,1256.477051 191.398270,1271.582642 200.206207,1286.729004 
	C210.167770,1303.859375 220.087021,1321.014526 230.037277,1338.151489 
	C239.002228,1353.591431 247.977203,1369.025391 256.960632,1384.454468 
	C265.944458,1399.884277 274.976349,1415.286255 283.928009,1430.734619 
	C292.877808,1446.179932 301.695953,1461.701904 310.677094,1477.128906 
	C322.870544,1498.073853 335.338959,1518.861694 347.259674,1539.959839 
	C349.501312,1543.927002 351.700073,1545.093506 356.019226,1545.090942 
	C536.179443,1544.984985 716.339722,1545.000000 897.500000,1545.000000 
z"/>
<path fill="#808080" opacity="1.000000" stroke="none" 
	d="
M897.000000,1545.000000 
	C716.339722,1545.000000 536.179443,1544.984985 356.019226,1545.090942 
	C351.700073,1545.093506 349.501312,1543.927002 347.259674,1539.959839 
	C335.338959,1518.861694 322.870544,1498.073853 310.677094,1477.128906 
	C301.695953,1461.701904 292.877808,1446.179932 283.928009,1430.734619 
	C274.976349,1415.286255 265.944458,1399.884277 256.960632,1384.454468 
	C247.977203,1369.025391 239.002228,1353.591431 230.037277,1338.151489 
	C220.087021,1321.014526 210.167770,1303.859375 200.206207,1286.729004 
	C191.398270,1271.582642 182.519882,1256.477051 173.728714,1241.320923 
	C163.702286,1224.035522 153.766739,1206.697388 143.738174,1189.413208 
	C134.367447,1173.262695 124.941345,1157.144165 115.513138,1141.027222 
	C101.785507,1117.560425 87.969612,1094.145142 74.311447,1070.638062 
	C61.640469,1048.830200 49.158867,1026.912476 36.508209,1005.092651 
	C34.705128,1001.982727 35.061657,999.554810 36.899151,996.483704 
	C46.066124,981.162354 54.973785,965.685547 63.937901,950.243286 
	C73.886093,933.105774 83.770439,915.931152 93.731438,898.801147 
	C102.622261,883.511475 111.617424,868.282471 120.497681,852.986694 
	C130.530914,835.705139 140.461487,818.363892 150.484558,801.076416 
	C159.766724,785.066833 169.092636,769.082520 178.434235,753.107544 
	C192.158066,729.638611 205.966187,706.218872 219.638245,682.719910 
	C231.005096,663.183167 242.175079,643.531860 253.527969,623.986877 
	C266.196350,602.177185 279.018524,580.456970 291.689880,558.648987 
	C305.432373,534.997498 319.066864,511.283234 332.771698,487.609833 
	C338.267456,478.116577 343.762909,468.621552 349.438385,459.236115 
	C350.103607,458.136078 351.847260,457.518433 353.219360,457.070465 
	C354.273804,456.726166 355.530273,456.999939 356.696899,456.999939 
	C563.689575,456.999847 770.682190,457.024048 977.674744,456.860016 
	C982.826721,456.855927 985.191833,458.814789 987.551819,462.910767 
	C1001.124268,486.466644 1015.014771,509.839020 1028.677734,533.343201 
	C1041.437134,555.293335 1053.993530,577.361450 1066.739380,599.319519 
	C1078.002319,618.723145 1089.452026,638.018372 1100.728394,657.414307 
	C1110.604614,674.402039 1120.289429,691.501282 1130.175781,708.483215 
	C1145.339600,734.530396 1160.670532,760.480408 1175.806641,786.543579 
	C1190.941162,812.604370 1205.846924,838.798157 1220.993896,864.851685 
	C1236.881104,892.178162 1252.967651,919.388611 1268.905640,946.685669 
	C1278.649902,963.374634 1288.271362,980.135376 1297.966064,996.853394 
	C1299.595337,999.663025 1300.090332,1001.924683 1298.088623,1005.277100 
	C1283.560791,1029.607422 1269.334961,1054.119141 1255.127808,1078.639526 
	C1240.019775,1104.714111 1225.118652,1130.908813 1209.977661,1156.964233 
	C1194.096191,1184.294067 1177.959229,1211.475464 1162.076538,1238.804688 
	C1144.630127,1268.824585 1127.417358,1298.980225 1109.970825,1329.000000 
	C1094.088135,1356.329224 1077.948120,1383.508789 1062.067993,1410.839478 
	C1043.306885,1443.128662 1024.726440,1475.522827 1006.018127,1507.842896 
	C999.454102,1519.182739 992.599976,1530.357300 986.208618,1541.792114 
	C984.741211,1544.417603 983.218384,1545.056763 980.496155,1545.048828 
	C952.830933,1544.968872 925.165405,1545.000000 897.000000,1545.000000 
M833.070923,765.396790 
	C811.070007,760.137024 789.049805,754.955261 767.087097,749.540527 
	C763.423950,748.637451 761.531677,749.676636 759.979065,752.871826 
	C755.542603,762.002075 750.675720,770.932800 746.526489,780.187805 
	C744.976318,783.645630 743.209717,784.497620 739.786865,783.973267 
	C734.065857,783.096924 728.313416,782.328247 722.545837,781.875671 
	C712.625488,781.097168 702.690491,780.272766 692.748718,780.050781 
	C675.141663,779.657532 657.502136,779.091553 639.919189,779.749023 
	C625.027039,780.305786 610.184998,782.391296 595.345764,784.026611 
	C591.960205,784.399658 590.392517,783.423279 588.933777,780.316223 
	C584.480103,770.830139 579.540833,761.573059 574.882996,752.181030 
	C573.557617,749.508423 571.818848,748.852783 568.850098,749.382874 
	C523.408997,757.497437 479.584595,770.871704 437.406464,789.610779 
	C435.540649,790.439697 433.594452,791.826721 432.473083,793.485962 
	C386.229980,861.911926 353.308533,935.933228 339.491364,1017.753662 
	C336.144684,1037.571533 333.095093,1057.617188 332.333649,1077.650391 
	C331.317352,1104.387573 332.437622,1131.221680 333.233215,1157.996582 
	C333.365051,1162.434204 332.442657,1167.820068 337.559753,1171.475586 
	C387.290283,1207.001099 441.182373,1234.086548 499.579956,1252.210449 
	C503.177765,1253.327026 505.400879,1253.107788 507.471283,1249.743896 
	C517.674316,1233.166504 527.976746,1216.649536 538.376770,1200.195068 
	C540.587891,1196.696655 539.754517,1195.301758 536.086792,1193.637573 
	C520.485962,1186.558838 505.037170,1179.143555 489.571320,1171.770386 
	C487.895111,1170.971313 486.467621,1169.650635 484.164429,1168.040161 
	C488.102325,1164.967529 491.165192,1162.152954 494.654266,1160.043213 
	C496.281525,1159.059204 499.010803,1158.688232 500.765381,1159.332886 
	C508.568878,1162.199951 516.134460,1165.707886 523.905334,1168.671387 
	C561.758667,1183.107788 601.018616,1191.915771 641.316772,1194.686035 
	C666.957947,1196.448730 692.784241,1195.760986 718.439575,1192.142578 
	C756.079346,1186.834229 792.564636,1177.409424 827.296631,1161.968506 
	C835.014587,1158.537109 840.478882,1158.307861 846.538147,1164.399048 
	C850.619995,1168.502441 851.167664,1169.073975 845.942444,1171.570190 
	C830.337708,1179.024780 814.649048,1186.307983 798.897400,1193.447021 
	C795.704651,1194.893921 794.158325,1196.061890 796.384888,1199.598145 
	C807.024841,1216.496582 817.565063,1233.457886 828.088257,1250.429443 
	C829.669922,1252.980469 831.485596,1253.433594 834.367798,1252.542725 
	C893.417725,1234.287354 948.052429,1207.174194 998.141907,1170.966064 
	C999.623840,1169.894897 1000.799988,1167.557373 1000.994690,1165.692993 
	C1001.889465,1157.124756 1002.578186,1148.523804 1002.987671,1139.917725 
	C1004.397034,1110.305298 1003.990601,1080.738037 1000.007690,1051.306641 
	C997.826721,1035.190796 996.206177,1018.954285 993.072998,1003.019897 
	C978.038025,926.557068 946.312317,857.204834 902.421021,793.167847 
	C901.375793,791.642944 899.586914,790.285767 897.850403,789.628601 
	C876.540527,781.564453 855.175598,773.645813 833.070923,765.396790 
z"/>
<path fill="#000000" opacity="1.000000" stroke="none" 
	d="
M833.447876,765.543091 
	C855.175598,773.645813 876.540527,781.564453 897.850403,789.628601 
	C899.586914,790.285767 901.375793,791.642944 902.421021,793.167847 
	C946.312317,857.204834 978.038025,926.557068 993.072998,1003.019897 
	C996.206177,1018.954285 997.826721,1035.190796 1000.007690,1051.306641 
	C1003.990601,1080.738037 1004.397034,1110.305298 1002.987671,1139.917725 
	C1002.578186,1148.523804 1001.889465,1157.124756 1000.994690,1165.692993 
	C1000.799988,1167.557373 999.623840,1169.894897 998.141907,1170.966064 
	C948.052429,1207.174194 893.417725,1234.287354 834.367798,1252.542725 
	C831.485596,1253.433594 829.669922,1252.980469 828.088257,1250.429443 
	C817.565063,1233.457886 807.024841,1216.496582 796.384888,1199.598145 
	C794.158325,1196.061890 795.704651,1194.893921 798.897400,1193.447021 
	C814.649048,1186.307983 830.337708,1179.024780 845.942444,1171.570190 
	C851.167664,1169.073975 850.619995,1168.502441 846.538147,1164.399048 
	C840.478882,1158.307861 835.014587,1158.537109 827.296631,1161.968506 
	C792.564636,1177.409424 756.079346,1186.834229 718.439575,1192.142578 
	C692.784241,1195.760986 666.957947,1196.448730 641.316772,1194.686035 
	C601.018616,1191.915771 561.758667,1183.107788 523.905334,1168.671387 
	C516.134460,1165.707886 508.568878,1162.199951 500.765381,1159.332886 
	C499.010803,1158.688232 496.281525,1159.059204 494.654266,1160.043213 
	C491.165192,1162.152954 488.102325,1164.967529 484.164429,1168.040161 
	C486.467621,1169.650635 487.895111,1170.971313 489.571320,1171.770386 
	C505.037170,1179.143555 520.485962,1186.558838 536.086792,1193.637573 
	C539.754517,1195.301758 540.587891,1196.696655 538.376770,1200.195068 
	C527.976746,1216.649536 517.674316,1233.166504 507.471283,1249.743896 
	C505.400879,1253.107788 503.177765,1253.327026 499.579956,1252.210449 
	C441.182373,1234.086548 387.290283,1207.001099 337.559753,1171.475586 
	C332.442657,1167.820068 333.365051,1162.434204 333.233215,1157.996582 
	C332.437622,1131.221680 331.317352,1104.387573 332.333649,1077.650391 
	C333.095093,1057.617188 336.144684,1037.571533 339.491364,1017.753662 
	C353.308533,935.933228 386.229980,861.911926 432.473083,793.485962 
	C433.594452,791.826721 435.540649,790.439697 437.406464,789.610779 
	C479.584595,770.871704 523.408997,757.497437 568.850098,749.382874 
	C571.818848,748.852783 573.557617,749.508423 574.882996,752.181030 
	C579.540833,761.573059 584.480103,770.830139 588.933777,780.316223 
	C590.392517,783.423279 591.960205,784.399658 595.345764,784.026611 
	C610.184998,782.391296 625.027039,780.305786 639.919189,779.749023 
	C657.502136,779.091553 675.141663,779.657532 692.748718,780.050781 
	C702.690491,780.272766 712.625488,781.097168 722.545837,781.875671 
	C728.313416,782.328247 734.065857,783.096924 739.786865,783.973267 
	C743.209717,784.497620 744.976318,783.645630 746.526489,780.187805 
	C750.675720,770.932800 755.542603,762.002075 759.979065,752.871826 
	C761.531677,749.676636 763.423950,748.637451 767.087097,749.540527 
	C789.049805,754.955261 811.070007,760.137024 833.447876,765.543091 
M826.466980,984.072937 
	C812.181641,965.834656 793.634216,956.817810 770.518372,960.629578 
	C740.874084,965.518005 722.526611,990.209717 719.183472,1019.857605 
	C717.491455,1034.862915 721.345947,1049.222046 728.941650,1062.429077 
	C751.683472,1101.971436 804.994812,1103.449829 828.863281,1064.603027 
	C845.218750,1037.984253 843.888611,1010.902771 826.466980,984.072937 
M517.822632,1077.691895 
	C518.977478,1078.647827 520.112793,1079.628540 521.289978,1080.556152 
	C542.166504,1097.005371 569.768250,1096.907837 590.914246,1080.881470 
	C620.816162,1058.219116 624.237427,1009.976501 601.635132,982.193665 
	C575.991699,950.672668 530.094910,952.798035 507.658539,986.706360 
	C488.644562,1015.442322 492.614716,1052.702393 517.822632,1077.691895 
z"/>
<path fill="#808080" opacity="1.000000" stroke="none" 
	d="
M826.680908,984.363037 
	C843.888611,1010.902771 845.218750,1037.984253 828.863281,1064.603027 
	C804.994812,1103.449829 751.683472,1101.971436 728.941650,1062.429077 
	C721.345947,1049.222046 717.491455,1034.862915 719.183472,1019.857605 
	C722.526611,990.209717 740.874084,965.518005 770.518372,960.629578 
	C793.634216,956.817810 812.181641,965.834656 826.680908,984.363037 
z"/>
<path fill="#808080" opacity="1.000000" stroke="none" 
	d="
M517.562195,1077.449707 
	C492.614716,1052.702393 488.644562,1015.442322 507.658539,986.706360 
	C530.094910,952.798035 575.991699,950.672668 601.635132,982.193665 
	C624.237427,1009.976501 620.816162,1058.219116 590.914246,1080.881470 
	C569.768250,1096.907837 542.166504,1097.005371 521.289978,1080.556152 
	C520.112793,1079.628540 518.977478,1078.647827 517.562195,1077.449707 
z"/>
</svg>